<svg width="292" height="296" viewBox="0 0 292 296" fill="none" xmlns="http://www.w3.org/2000/svg">
<g filter="url(#filter0_d_77_16)">
<path d="M213.737 185.547C213.983 182.73 213.656 180.223 214.372 177.387C215.245 162.688 215.942 148.369 215.675 134.017C215.31 114.446 207.767 98.1427 193.402 84.9812C175.215 68.3185 153.99 62.727 129.887 67.9865C129.483 68.0747 129.067 68.109 128.405 68.1698C123.893 67.9695 120.13 67.041 116.647 64.0157C111.737 59.7504 111.781 49.9025 119.26 45.297C120.186 44.7267 121.131 44.1735 122.334 43.4847C122.561 43.288 122.845 43.2301 122.989 43.2375C123.407 43.0263 123.731 42.961 124.224 42.8702C124.667 42.7502 124.951 42.6871 125.456 42.6263C125.676 42.6286 125.852 42.4257 125.986 42.431C129.831 41.0558 133.745 41.0204 137.898 40.7063C143.2 40.1659 148.236 40.5778 153.544 40.6018C154.113 40.701 154.401 40.6859 154.904 40.7034C155.199 40.6623 155.278 40.5887 155.457 40.6434C171.644 42.2014 186.372 47.5586 199.643 56.641C213.874 66.3804 225.012 78.8987 232.427 94.5962C238.134 106.678 241.584 119.281 241.709 132.703C241.889 151.943 241.125 171.14 239.014 190.275C238.695 193.163 238.5 196.065 238.18 199.221C237.755 204.347 236.288 208.587 232.576 212.133C226.174 218.249 215.973 215.199 213.159 206.416C212.674 204.902 211.944 203.314 212.401 201.314C212.528 199.601 212.557 198.174 212.659 196.486C213.731 194.401 212.918 192.405 213.333 190.304C213.467 188.685 213.543 187.284 213.737 185.547Z" fill="#805AD5"/>
<path d="M12.3965 109.034C12.569 108.563 12.6002 108.285 12.6608 107.799C12.7585 107.404 12.854 107.233 13.0216 106.937C14.3923 98.1435 17.4209 90.0299 20.7829 81.9995C25.5295 70.662 31.953 60.3264 39.5899 50.767C46.0733 42.6516 53.4395 35.3513 61.6641 28.959C69.7665 22.6616 78.3658 17.1724 87.6871 12.8189C98.3389 7.84411 109.444 4.4411 120.986 2.15233C132.724 -0.17541 144.567 -0.312896 156.349 0.333971C171.624 1.17271 186.347 4.90465 200.431 11.1212C216.538 18.2305 230.796 27.8814 243.114 40.4682C247.327 44.7727 251.294 49.2508 255.022 54.2269C255.209 54.5209 255.286 54.6387 255.481 54.9324C256.053 55.7983 256.509 56.4883 257.062 57.362C260.624 68.7791 254.823 76.1566 242.301 76.0995C239.082 75.6379 237.043 73.8012 235.269 71.5915C231.333 66.6909 227.571 61.6216 222.972 57.315C209.899 45.073 195.021 35.9873 177.726 30.7428C164.506 26.7341 151.038 25.4652 137.459 26.4023C123.555 27.3619 110.265 31.0443 97.6563 37.4138C89.1866 41.6923 81.2575 46.6629 74.1509 52.7839C65.4409 60.2861 58.0221 69.0071 52.0462 78.9242C45.2035 90.2797 40.3129 102.374 37.8943 115.389C36.8763 120.868 36.064 126.41 36.0858 132.04C36.0994 135.557 35.7416 139.075 35.509 142.876C33.6345 145.34 32.5558 148.071 30.132 149.842C22.99 155.062 13.119 151.451 10.8797 142.912C10.6738 142.127 10.7289 141.302 10.2836 140.292C9.71296 131.463 10.1636 122.918 11.3889 114.14C12.2633 112.415 12.2206 110.814 12.3965 109.034Z" fill="#805AD5"/>
<path d="M68.2054 197.258C68.0358 198.015 67.9324 198.565 67.6848 199.47C67.5072 200.138 67.4738 200.451 67.3901 200.995C66.1427 202.803 65.4717 204.73 64.2486 206.252C60.3698 211.078 54.8189 211.974 51.3242 210.68C45.8274 208.644 42.4711 203.359 42.8452 197.417C42.9007 196.535 43.1599 195.67 42.9839 194.474C43.0869 193.701 43.151 193.231 43.3045 192.541C43.4925 191.907 43.4673 191.481 43.6497 190.903C44.9705 184.135 46.3188 177.551 47.2887 170.911C48.1982 164.686 48.7855 158.409 49.3755 152.142C50.3948 141.314 49.5112 130.336 51.4767 119.6C53.1963 110.208 56.0386 101.099 60.6377 92.6401C62.3201 89.5456 63.8484 86.3571 66.1399 83.3811C68.186 81.3258 70.1671 79.6779 72.5967 78.2922C80.0484 74.0421 89.7092 80.4312 89.5307 89.1737C89.5067 90.3459 89.375 91.51 89.5378 92.991C89.3278 94.5632 88.7046 95.6219 88.0105 96.672C79.9858 108.813 75.5127 122.093 75.8694 136.712C76.2017 150.331 74.2619 163.713 72.5831 177.155C71.8101 183.343 69.7908 189.203 68.6292 195.538C68.4828 196.213 68.4659 196.649 68.2054 197.258Z" fill="#805AD5"/>
<path d="M171.175 207.628C171.362 206.415 171.406 205.345 171.478 204.01C171.619 203.419 171.626 203.071 171.831 202.608C172.495 195.351 173.521 188.268 173.758 180.884C174.134 180.369 174.441 180.144 175.079 179.964C175.752 180.038 176.069 180.238 176.431 180.818C176.481 182.005 176.874 182.931 176.535 184.124C176.046 186.058 176.08 187.776 176.017 189.739C176.27 190.676 175.784 191.37 176.041 192.304C175.497 194.247 174.923 195.939 176.46 197.719C176.484 198.306 176.425 198.641 176.34 199.222C176.084 200.674 174.367 201.189 174.791 202.937C174.767 203.466 174.754 203.769 174.706 204.297C173.996 205.784 174.144 207.05 174.689 208.542C174.738 209.066 174.738 209.366 174.684 209.884C174.233 210.946 173.07 211.606 174.04 212.99C174.328 214.647 173.736 216.096 174.126 217.756C174.143 223.625 176.917 227.41 181.53 228.167C183.916 228.559 185.816 227.779 187.541 225.872C187.804 225.622 187.913 225.526 188.201 225.304C191.918 222.789 192.3 218.983 192.853 215.036C192.947 214.391 192.795 213.955 192.897 213.31C192.903 212.948 192.907 212.804 192.947 212.444C193.498 211.548 194.325 211.02 194.109 209.747C193.943 209.047 194.353 208.583 194.233 207.873C194.867 205.081 195.003 202.467 195.395 199.64C195.395 199.055 195.401 198.719 195.438 198.129C195.496 194.17 198.116 190.774 196.696 186.672C196.482 186.129 196.401 185.81 196.416 185.24C197.068 183.134 197.175 181.244 196.703 179.091C196.636 178.22 196.644 177.584 196.654 176.71C196.686 175.986 196.811 175.52 196.999 174.817C197.223 174.098 197.253 173.597 197.322 172.837C197.83 169.871 198.166 167.165 197.376 164.17C197.99 161.5 197.941 159.068 197.862 156.356C198.851 149.422 198.746 142.755 198.009 135.818C197.77 134.242 197.804 132.887 197.212 131.424C197.284 130.31 197.287 129.427 197.197 128.326C197.127 127.818 197.082 127.528 197.022 127.017C195.711 118.524 192.677 111.008 187.152 104.352C186.802 103.983 186.601 103.775 186.217 103.45C185.467 102.895 184.988 102.365 184.376 101.66C183.5 100.209 182.755 98.9328 181.45 97.8523C180.567 97.1711 179.889 96.5359 178.899 95.9664C178.242 94.9944 177.277 94.7261 176.401 94.0468C175.816 93.7977 175.457 93.569 174.958 93.1559C174.654 92.9523 174.527 92.8785 174.218 92.6761C167.922 87.4022 160.741 85.1422 152.637 84.7617C151.566 84.8788 150.903 84.2939 149.875 84.1561C140.488 82.9885 131.912 84.782 123.632 89.2551C123.048 89.6575 122.604 89.8084 121.993 90.1191C120.622 90.333 119.603 90.7462 118.714 91.8569C117.359 92.6532 116.165 93.318 114.967 94.3506C114.085 94.7958 113.154 94.8287 112.838 96.0155C112.317 96.7555 111.973 97.3574 111.644 98.2069C111.488 98.5189 111.413 98.6372 111.182 98.8948C109.147 99.7862 107.988 101.405 106.423 102.853C105.881 103.355 105.511 103.74 105.087 104.341C104.748 104.831 104.574 105.19 104.218 105.669C103.83 106.123 103.571 106.426 103.204 106.9C103.004 107.17 102.926 107.279 102.731 107.556C102.364 108.051 102.12 108.384 101.769 108.9C101.57 109.195 101.489 109.313 101.269 109.598C97.1634 115.349 95.0645 121.575 94.7219 128.623C94.7323 129.139 94.7284 129.434 94.6977 129.947C94.1521 131.532 93.7362 132.913 94.0972 134.627C94.1107 135.319 94.1056 135.785 94.0184 136.487C92.471 141.155 92.4413 145.661 93.334 150.456C93.5944 151.62 92.9952 152.337 92.6493 153.382C92.0195 154.168 91.4575 154.548 90.4884 154.012C89.9744 142.824 89.6462 131.807 92.4156 121.055C94.5297 112.849 98.6491 105.664 104.311 99.2608C110.82 91.9006 118.658 86.725 127.848 83.413C131.677 82.033 135.654 81.213 139.638 80.8449C150.093 79.8787 160.272 81.1718 169.857 85.7596C179.827 90.5318 187.664 97.7273 193.445 107.081C199.082 116.204 201.62 126.198 201.332 136.943C201.178 142.657 201.499 148.387 201.265 154.095C200.734 167.021 200.239 179.957 199.252 192.853C198.552 201.99 197.072 211.067 195.848 220.395C195.665 220.7 195.574 220.781 195.541 221.034C195.69 222.365 195.678 223.504 194.891 224.742C192.884 228.05 190.791 230.918 187.111 232.114C178.39 234.947 171.225 229.577 170.065 221.742C169.989 221.231 169.916 220.723 169.83 219.918C170.024 217.17 170.194 214.724 170.487 212.055C171.317 211.213 170.919 210.412 170.87 209.519C170.763 209.078 170.752 208.803 170.789 208.327C170.903 208.007 170.967 207.889 171.175 207.628Z" fill="#805AD5"/>
<path d="M158.571 134.206C158.711 141.833 158.691 149.227 158.587 156.923C158.488 158.258 158.548 159.292 158.336 160.506C158.278 173.682 156.92 186.575 155.497 199.465C154.86 205.234 154.334 211.074 153.22 216.714C150.633 229.812 148.216 242.99 143.916 255.692C143.058 258.229 142.77 260.957 141.222 263.49C139.12 265.385 137.633 267.453 135.346 269.002C128.835 273.415 118.11 269.602 117.124 260.121C116.98 258.735 116.977 257.324 116.742 255.671C118.734 248.606 121.263 242.019 122.782 235.123C124.966 225.206 126.81 215.262 128.197 205.177C129.523 195.538 130.784 185.919 131.529 176.223C132.508 163.486 132.726 150.728 132.672 137.96C132.666 136.516 132.843 135.072 133.073 133.409C134.664 131.742 135.349 129.78 136.675 128.212C141.818 122.133 152.582 122.397 157.132 130.998C157.621 131.922 158.048 132.953 158.571 134.206Z" fill="#805AD5"/>
<path d="M256.708 138.385C256.512 136.872 256.466 135.588 256.393 134.03C255.621 130.85 256.271 127.885 255.808 124.749C255.004 123.664 255.283 122.673 255.312 121.482C255.361 121.243 255.336 120.958 255.269 120.831C254.728 119.95 254.864 119.112 254.908 118.046C255.224 115.19 254.714 112.575 255.117 109.947C255.892 104.893 259.707 100.579 264.216 99.8976C270.09 99.0097 275.178 101.509 277.56 106.481C279.266 110.042 280.319 113.741 280.543 117.738C280.972 125.392 281.928 133.016 280.797 140.701C279.931 146.59 275.549 151.028 270.059 151.224C263.814 151.446 258.74 147.393 257.598 141.307C257.427 140.396 257.454 139.415 256.708 138.385Z" fill="#805AD5"/>
<path d="M83.0432 210.15C84.3353 203.461 85.496 196.929 86.8191 190.213C89.0547 189.894 88.2564 191.487 88.338 192.424C88.4415 193.613 87.7261 194.766 88.1416 196.22C88.3789 196.758 88.4474 197.084 88.4824 197.662C88.5073 198.226 88.5262 198.546 88.5705 199.098C88.6089 199.481 88.6257 199.632 88.6778 200.007C88.7258 200.866 88.2366 201.265 87.8926 201.959C87.6454 202.513 87.5058 202.889 87.3741 203.473C87.3073 204.063 87.2792 204.457 87.2643 205.052C87.2598 205.652 87.2641 206.052 87.3171 206.654C87.3709 206.993 87.3978 207.129 87.479 207.467C87.6212 207.947 87.7312 208.214 87.9155 208.7C87.9934 209.413 87.7849 209.83 87.4894 210.462C86.9618 212.135 86.3841 213.571 86.7905 215.357C86.9299 215.985 87.0268 216.401 87.1765 217.022C87.2471 217.365 87.2728 217.502 87.3403 217.843C87.8576 219.941 88.2857 221.872 90.9116 222.261C91.2084 222.416 91.3167 222.495 91.5684 222.712C92.2792 223.402 92.9265 223.826 93.8712 224.134C95.7889 224.429 97.0676 223.522 98.4665 222.375C103.326 220.516 104.618 216.198 105.673 212.111C105.965 210.978 106.718 209.812 106.738 208.329C107.666 205.808 110.06 203.888 108.597 200.785C108.478 199.977 108.504 199.382 108.489 198.57C108.493 197.769 108.493 197.187 108.5 196.391C108.513 196.033 108.521 195.891 108.569 195.539C109.013 194.435 109.474 193.56 109.614 192.35C109.748 191.572 109.712 190.996 109.765 190.204C109.815 189.536 109.927 189.102 110.069 188.442C110.233 187.614 110.341 187.007 110.521 186.176C112.708 183.482 112.556 180.843 111.116 177.894C110.972 176.904 110.995 176.133 110.995 175.133C110.997 174.751 110.999 174.599 111.007 174.218C111.059 173.508 111.29 173.143 111.867 172.753C112.775 172.096 112.613 171.446 112.26 170.562C112.076 169.479 111.843 168.625 111.652 167.531C111.618 166.677 111.615 166.052 111.702 165.187C113.267 163.651 113.364 162.002 112.885 159.975C112.999 158.907 112.754 158.072 112.926 156.984C113.016 153.396 113.023 150.072 112.908 146.494C114.611 144.61 114.124 142.661 113.704 140.519C113.361 139.651 113.107 139.015 112.919 138.089C112.876 137.119 112.849 136.409 113.142 135.467C113.42 135.117 113.569 135.009 113.99 134.847C114.813 134.779 115.377 134.609 116.105 135.117C116.386 135.485 116.466 135.655 116.433 136.084C116.316 140.803 116.448 145.268 116.284 149.722C115.75 164.248 114.994 178.737 112.758 193.154C111.384 202.017 109.802 210.808 107.664 219.753C107.481 220.059 107.401 220.142 107.351 220.395C107.512 221.486 106.841 222.085 106.316 222.935C103.733 224.962 101.853 227.593 98.5003 228.196C92.1298 229.341 87.7489 227.969 84.1698 222.527C83.7404 221.875 83.2461 221.163 82.7206 220.214C81.8124 217.608 81.7781 215.2 82.7193 212.57C82.8711 211.664 82.8231 210.984 83.0432 210.15Z" fill="#805AD5"/>
<path d="M256.504 138.431C258.652 138.801 258.675 140.815 259.317 142.39C261.762 148.393 267.904 151.444 273.159 148.968C277.102 147.109 279.061 143.678 279.939 139.44C281.556 131.634 280.162 123.923 279.557 116.172C279.172 111.241 277.068 107.191 273.537 103.892C268.626 99.3052 261.155 100.65 257.819 106.475C255.877 109.866 256.136 113.722 255.044 117.552C253.403 111.954 252.575 106.312 257.381 101.292C263.251 95.161 275.019 97.038 278.303 104.877C280.402 109.888 280.814 115.275 281.452 120.611C282.256 127.327 281.884 134.058 281.997 140.783C282.027 142.58 281.809 144.289 280.847 146.098C280.437 146.56 280.425 146.924 280.213 147.382C279.667 148.041 279.248 148.577 278.577 149.364C277.113 151.163 275.362 151.832 273.373 152.507C273.141 152.524 273.017 152.792 272.876 152.748C272.02 152.81 271.306 152.916 270.318 153.017C269.782 153.083 269.515 153.13 269.042 153.161C268.156 153.102 267.474 153.039 266.539 152.928C266.165 152.848 266.043 152.816 265.764 152.68C264.061 152.566 262.907 151.589 261.485 150.787C261.254 150.533 261.15 150.451 260.946 150.198C260.467 149.681 260.088 149.336 259.596 148.834C259.369 148.608 259.255 148.538 259.013 148.315C256.391 145.442 256.254 142.117 256.504 138.431Z" fill="#805AD5"/>
<path d="M212.39 201.274C213.228 204.891 214.911 208.286 217.732 211.02C221.549 214.721 227.624 214.834 231.557 211.269C234.937 208.206 237.254 204.487 238.02 199.683C238.087 203.023 237.87 206.562 236.19 209.755C233.192 215.456 226.569 218.083 220.55 216.104C214.56 214.135 211.348 208.47 212.39 201.274Z" fill="#805AD5"/>
<path d="M136.466 108.05C136.311 108.194 136.234 108.303 136.169 108.289C135.836 108.275 135.596 108.356 135.225 108.632C134.158 109.157 133.251 109.569 132.135 110.031C131.667 110.394 131.248 110.378 130.842 110.731C130.76 110.901 130.795 110.844 130.823 110.861C130.359 110.973 130.071 111.37 129.568 111.764C128.896 112.249 128.364 112.626 127.658 113.096C127.419 113.289 127.354 113.389 127.117 113.543C125.898 114.597 124.85 115.596 123.69 116.783C123.541 117.084 123.503 117.196 123.317 117.404C122.819 118.052 122.471 118.605 121.987 119.299C121.569 119.815 121.24 120.151 120.907 120.691C120.86 120.86 120.82 120.799 120.85 120.78C120.45 120.902 120.385 121.279 120.183 121.792C119.656 122.838 119.254 123.742 118.787 124.851C117.961 126.069 117.666 127.279 117.13 128.637C116.472 129.413 115.897 129.523 115.094 128.878C114.137 125.284 116.562 122.76 117.403 119.562C117.53 119.182 117.588 119.033 117.745 118.667C118.028 118.013 118.275 117.614 118.708 117.056C119.372 116.352 119.519 115.508 120.396 115.019C120.898 114.265 121.396 113.787 122.069 113.193C122.443 112.893 122.646 112.708 122.969 112.352C123.553 111.664 124.034 111.165 124.76 110.616C125.595 110.235 126.036 109.631 126.811 109.16C127.241 108.658 127.558 108.357 128.128 108.02C128.457 107.86 128.59 107.802 128.925 107.658C132.137 106.868 134.59 104.944 137.595 103.703C138.092 103.638 138.371 103.565 138.846 103.425C139.743 103.287 140.433 103.166 141.288 102.927C142.093 102.915 142.689 102.71 143.511 102.956C145.094 103.051 146.45 103.193 148.031 102.918C148.851 102.778 149.473 103.149 150.275 102.831C151.226 102.971 151.917 103.242 152.859 103.434C153.384 103.524 153.688 103.574 154.213 103.72C155.392 104.207 156.1 104.854 156.504 106.086C156.511 106.5 156.487 106.665 156.321 107.038C154.674 108.023 153.259 107.347 151.577 106.942C150.463 106.887 149.597 106.862 148.475 106.796C147.099 106.131 145.936 106.245 144.59 106.653C143.349 106.796 142.28 106.838 140.944 106.898C139.255 106.959 137.975 107.586 136.466 108.05Z" fill="#805AD5"/>
<path d="M42.8652 194.367C43.6334 195.526 43.7053 196.972 43.8341 198.422C44.3286 203.992 47.6973 208.132 52.796 209.519C56.6855 210.576 61.3772 208.375 64.4243 204.051C65.141 203.034 65.782 201.952 67.1576 201.311C66.1564 209.177 58.81 213.973 51.7333 212.207C45.2315 210.583 39.5937 203.89 42.8652 194.367Z" fill="#805AD5"/>
<path d="M122.323 43.2828C122.113 44.68 120.954 45.4418 119.857 46.2164C115.925 48.9924 114.016 52.8514 114.721 57.5185C115.468 62.46 119.086 65.0968 123.619 66.5961C125.001 67.053 126.384 67.5037 127.961 68.064C121.293 70.2042 114.362 66.3773 112.324 59.4302C110.272 52.4383 114.591 45.2913 122.323 43.2828Z" fill="#805AD5"/>
<path d="M89.674 93.1144C88.4253 92.1746 88.2638 90.7623 88.1587 89.2752C87.499 79.9386 79.2323 75.5561 71.1629 80.255C69.6393 81.1423 68.178 82.1363 66.4851 83.154C69.4969 77.5 75.7865 74.3079 80.8454 75.8359C87.0649 77.7144 91.0518 83.3245 90.7311 89.667C90.6717 90.8433 90.3616 91.9061 89.674 93.1144Z" fill="#805AD5"/>
<path d="M116.704 255.615C117.351 257.387 117.733 259.432 118.384 261.388C121.166 269.734 129.478 272.232 136.554 266.971C137.954 265.929 138.892 264.299 140.877 263.715C137.623 271.625 130.988 273.098 125.061 271.332C118.746 269.451 114.845 263.886 116.704 255.615Z" fill="#805AD5"/>
<path d="M10.0851 140.315C11.329 140.892 11.5174 142.314 12.0755 143.516C16.3214 152.66 25.8282 153.89 32.3245 146.134C33.1725 145.121 33.6447 143.735 35.2705 143.219C34.3236 148.454 30.9671 151.81 25.8169 152.865C20.1189 154.032 15.1017 152.356 11.6799 147.39C10.3207 145.417 9.77337 143.048 10.0851 140.315Z" fill="#805AD5"/>
<path d="M169.713 219.843C170.803 221.913 171.372 224.365 172.791 226.465C177.386 233.266 186.577 233.792 192.038 227.541C192.786 226.685 193.36 225.666 194.602 225.043C193.801 229.814 190.407 232.421 185.967 233.431C181.244 234.504 176.763 233.676 173.156 229.937C170.464 227.147 169.438 223.84 169.713 219.843Z" fill="#805AD5"/>
<path d="M158.762 134.199C156.485 132.849 155.684 130.11 153.665 128.265C148.792 123.808 141.426 124.118 137.134 129.194C136.011 130.522 135.251 132.187 133.406 133.109C135.378 126.269 140.06 122.96 146.948 123.062C151.65 123.132 158.131 128.036 158.762 134.199Z" fill="#805AD5"/>
<path d="M174.922 161.193C175.117 152.41 175.149 143.995 175.234 135.327C175.5 134.692 175.818 134.448 176.551 134.359C178.04 135.065 178.353 136.205 178.451 137.745C177.487 141.496 177.969 145.035 177.918 148.537C177.875 151.444 177.712 154.365 178.228 157.519C178.58 158.651 178.484 159.552 178.502 160.709C178.488 161.503 178.333 162.009 178.141 162.771C177.921 164.013 177.834 165.013 177.63 166.255C177.43 166.632 177.311 166.761 176.943 166.98C175.113 167.159 175.138 165.97 174.902 164.672C174.8 163.467 174.78 162.514 174.922 161.193Z" fill="#805AD5"/>
<path d="M87.3135 188.958C87.6147 183.8 88.1985 178.831 88.5775 173.847C89.0296 167.902 89.3064 161.942 89.8765 155.835C91.7093 155.594 91.4688 156.761 91.5983 157.785C92.0902 161.676 91.2709 165.582 91.8568 169.735C92.5243 171.092 91.858 172.069 91.6329 173.34C91.4558 175.041 91.2222 176.489 91.5831 178.19C91.6104 178.937 91.6051 179.437 91.499 180.188C90.5878 182.377 89.7686 184.292 89.6763 186.488C89.6244 187.723 89.5841 189.376 87.3135 188.958Z" fill="#805AD5"/>
<path d="M177.191 135.164C176.568 135.07 176.202 135.07 175.561 135.072C175.238 133.764 175.19 132.455 175.115 130.894C174.408 129.405 174.767 127.917 173.984 126.491C173.831 126.316 173.727 126.233 173.752 126.172C173.766 125.843 173.679 125.602 173.399 125.231C172.87 124.168 172.458 123.263 171.997 122.149C171.637 121.675 171.652 121.255 171.298 120.841C171.129 120.753 171.245 120.744 171.25 120.802C171.205 120.637 171.093 120.453 170.792 120.197C170.297 119.57 169.926 119.054 169.504 118.35C169.347 118.073 169.243 117.983 169.015 117.725C168.893 117.558 168.841 117.559 168.84 117.533C168.741 117.439 168.643 117.371 168.484 117.134C167.753 116.267 167.081 115.568 166.353 114.668C166.289 113.931 166.47 113.487 167.159 113.08C168.193 112.865 169.035 112.547 169.865 113.508C170.491 113.829 170.853 114.121 171.321 114.627C172.15 115.226 172.004 116.21 172.851 116.792C173.372 117.246 173.638 117.624 174.004 118.196C174.789 119.409 175.529 120.388 175.785 121.854C176.489 122.837 176.9 123.708 177.328 124.85C178.066 127.605 178.789 130.105 179.028 132.969C178.674 134.048 178.516 135.005 177.191 135.164Z" fill="#805AD5"/>
<path d="M82.561 220.244C83.8457 220.359 84.4984 221.427 85.2297 222.431C89.5137 228.307 96.8056 229.416 102.61 225.078C103.596 224.342 104.457 223.413 105.942 223.102C103.391 228.604 98.5359 229.943 92.9418 229.3C87.6262 228.689 84.2587 225.498 82.561 220.244Z" fill="#805AD5"/>
<path d="M242.245 76.2327C242.949 75.3222 244.061 75.2021 245.212 75.1337C253.705 74.6281 258.917 67.7345 257.114 59.4334C257.008 58.9451 257.048 58.4252 257.088 57.7331C261.904 65.7295 255.855 76.5874 246.468 76.6977C245.131 76.7134 243.759 76.929 242.245 76.2327Z" fill="#805AD5"/>
<path d="M91.4804 170.825C90.1404 167.422 90.8689 164.075 90.6781 160.783C90.5885 159.236 90.8106 157.666 90.1873 155.919C90.1365 155.212 90.1791 154.743 90.2682 154.043C90.7428 153.642 91.1709 153.472 91.7564 153.231C93.1109 152.805 93.3371 153.626 93.4501 154.484C93.6116 155.708 93.785 156.93 94.0509 158.422C93.8929 159.585 94.4267 160.517 94.0188 161.646C94.2396 163.973 92.6473 165.865 93.4771 168.255C93.4581 169.209 93.5091 169.929 93.0123 170.792C92.4396 171.139 92.0742 171.138 91.4804 170.825Z" fill="#805AD5"/>
<path d="M87.0774 188.981C88.7215 187.763 88.6441 186.073 88.9058 184.493C89.1495 183.022 89.1635 181.454 90.4684 180.123C91.8801 180.392 91.618 181.644 92.1252 182.751C92.0225 183.491 92.5829 184.022 92.1472 184.742C92.2113 186.041 91.6873 187.015 91.6491 188.3C91.742 188.863 91.6914 189.178 91.5003 189.716C90.431 192.223 90.2897 194.765 89.1521 197.217C88.587 197.441 88.2563 197.39 87.7454 197.043C86.2854 194.805 87.9212 192.556 87.0657 190.242C86.9993 189.749 87.0172 189.468 87.0774 188.981Z" fill="#805AD5"/>
<path d="M174.754 164.701C175.237 164.943 175.656 165.468 176.171 166.135C177.777 167.663 176.986 169.482 177.225 171.402C177.572 172.446 176.93 173.228 177.265 174.268C175.817 176.249 176.783 178.623 175.278 180.498C174.776 180.644 174.518 180.648 174.066 180.654C173.501 175.399 174.955 170.236 174.754 164.701Z" fill="#805AD5"/>
<path d="M155.535 107.186C155.682 106.891 155.684 106.78 155.69 106.502C156.402 105.203 157.326 105.395 158.296 105.921C159.185 106.403 160.122 106.747 161.356 107.009C162.195 107.356 162.967 107.307 163.571 108.082C164.538 109.232 165.335 110.265 165.661 111.775C165.304 112.476 164.86 112.614 164.09 112.543C163.279 112.243 162.714 111.963 162.042 111.523C161.788 111.196 161.635 111.034 161.317 110.829C161.157 110.78 161.275 110.78 161.275 110.839C161.118 110.477 160.741 110.405 160.221 110.207C159.197 109.648 158.319 109.213 157.372 108.613C157.068 108.453 156.834 108.458 156.257 108.388C155.914 108.313 155.773 108.319 155.735 108.261C155.441 107.981 155.339 107.704 155.535 107.186Z" fill="#805AD5"/>
<path d="M115.441 128.082C116.005 128.206 116.327 128.224 116.769 128.212C117.576 128.758 117.147 129.512 117.063 130.413C116.87 132.13 116.825 133.622 116.538 135.4C115.831 135.688 115.366 135.689 114.668 135.688C113.89 135.183 113.354 134.671 112.88 133.775C112.887 132.964 112.996 132.427 113.038 131.612C113.036 130.98 113.105 130.634 113.378 130.067C113.964 129.119 114.127 128.131 115.441 128.082Z" fill="#805AD5"/>
<path d="M153.583 40.6383C148.803 40.7308 143.781 40.7468 138.469 40.7384C143.226 39.9491 148.285 40.3024 153.583 40.6383Z" fill="#805AD5"/>
<path d="M213.295 190.313C213.879 192.069 214.252 194.044 212.891 196.076C212.699 194.314 212.7 192.406 213.295 190.313Z" fill="#805AD5"/>
<path d="M117.074 130.482C116.904 129.982 116.893 129.327 116.885 128.427C117.088 127.062 117.344 125.97 118.546 125.163C118.225 126.813 117.729 128.571 117.074 130.482Z" fill="#805AD5"/>
<path d="M255.671 124.816C257.12 127.309 256.174 130.299 256.381 133.47C255.225 130.937 256.305 127.954 255.671 124.816Z" fill="#805AD5"/>
<path d="M163.923 112.664C164.15 112.372 164.455 112.221 164.92 112.013C165.664 111.439 166.316 111.601 167.186 111.89C167.781 112.392 167.949 112.835 167.705 113.592C167.266 113.976 166.943 114.138 166.458 114.382C165.993 114.236 165.689 114.008 165.218 113.687C164.939 113.556 164.827 113.519 164.618 113.333C164.349 113.058 164.175 112.932 163.923 112.664Z" fill="#805AD5"/>
<path d="M136.548 108.189C137.309 106.796 138.702 106.51 140.485 106.85C139.466 107.604 138.156 107.984 136.548 108.189Z" fill="#805AD5"/>
<path d="M155.448 106.989C155.686 107.267 155.692 107.533 155.697 108C154.342 107.884 152.987 107.568 151.48 107.081C152.623 106.934 153.92 106.955 155.448 106.989Z" fill="#805AD5"/>
<path d="M144.684 106.809C145.509 105.63 146.685 105.537 148.08 106.612C147.128 106.791 146.04 106.827 144.684 106.809Z" fill="#805AD5"/>
<path d="M12.3829 109.02C12.5831 110.459 12.7315 112.092 11.6204 113.71C11.7252 112.316 11.9778 110.757 12.3829 109.02Z" fill="#805AD5"/>
<path d="M173.841 126.55C175.197 127.277 175.09 128.731 175.103 130.391C174.677 129.356 174.262 128.071 173.841 126.55Z" fill="#805AD5"/>
<path d="M158.275 160.472C158.271 159.658 158.328 158.628 158.446 157.411C158.45 158.235 158.393 159.246 158.275 160.472Z" fill="#805AD5"/>
<path d="M170.708 209.593C171.163 210.067 171.206 210.792 170.727 211.68C170.621 211.165 170.631 210.499 170.708 209.593Z" fill="#805AD5"/>
<path d="M121.008 120.761C121.087 120.45 121.316 120.042 121.697 119.536C121.618 119.847 121.388 120.256 121.008 120.761Z" fill="#805AD5"/>
<path d="M83.0679 210.168C83.1156 210.653 83.0559 211.313 82.9308 212.158C82.8971 211.676 82.9288 211.009 83.0679 210.168Z" fill="#805AD5"/>
<path d="M129.602 111.831C129.784 111.565 130.141 111.26 130.674 110.916C130.493 111.182 130.135 111.486 129.602 111.831Z" fill="#805AD5"/>
<path d="M68.2352 197.315C68.2141 196.969 68.2896 196.473 68.4445 195.879C68.4598 196.243 68.3957 196.704 68.2352 197.315Z" fill="#805AD5"/>
<path d="M268.927 153.285C269.156 153.093 269.477 153.02 269.919 152.98C269.772 153.332 269.484 153.6 268.927 153.285Z" fill="#805AD5"/>
<path d="M43.6971 190.885C43.7048 191.174 43.6235 191.606 43.4676 192.179C43.4647 191.889 43.5365 191.458 43.6971 190.885Z" fill="#805AD5"/>
<path d="M171.813 202.602C171.853 202.8 171.772 203.128 171.598 203.6C171.568 203.406 171.63 203.069 171.813 202.602Z" fill="#805AD5"/>
<path d="M280.245 147.414C280.229 147.197 280.372 146.889 280.614 146.44C280.609 146.641 280.507 146.981 280.245 147.414Z" fill="#805AD5"/>
<path d="M124.217 42.8293C124.077 42.9395 123.771 43.0657 123.3 43.2184C123.44 43.1116 123.746 42.9785 124.217 42.8293Z" fill="#805AD5"/>
<path d="M160.193 110.229C160.391 110.266 160.705 110.449 161.148 110.765C160.954 110.724 160.632 110.549 160.193 110.229Z" fill="#805AD5"/>
<path d="M130.939 110.863C131.033 110.668 131.308 110.436 131.753 110.141C131.655 110.328 131.388 110.577 130.939 110.863Z" fill="#805AD5"/>
<path d="M171.164 120.937C171.357 121.036 171.585 121.319 171.88 121.771C171.697 121.667 171.448 121.394 171.164 120.937Z" fill="#805AD5"/>
<path d="M120.203 121.821C120.239 121.622 120.421 121.312 120.741 120.88C120.702 121.075 120.526 121.392 120.203 121.821Z" fill="#805AD5"/>
<path d="M156.064 108.46C156.147 108.335 156.379 108.356 156.957 108.413C156.992 108.863 156.609 108.777 156.064 108.46Z" fill="#805AD5"/>
<path d="M195.677 221.07C195.56 221.046 195.579 220.891 195.707 220.682C195.756 220.724 195.755 220.829 195.677 221.07Z" fill="#805AD5"/>
<path d="M12.9382 106.894C13.0353 106.995 12.9664 107.178 12.7732 107.469C12.7297 107.39 12.7709 107.191 12.9382 106.894Z" fill="#805AD5"/>
<path d="M161.229 110.937C161.338 110.897 161.52 111.016 161.818 111.248C161.724 111.273 161.513 111.184 161.229 110.937Z" fill="#805AD5"/>
<path d="M107.463 220.428C107.351 220.4 107.376 220.246 107.51 220.038C107.556 220.081 107.55 220.186 107.463 220.428Z" fill="#805AD5"/>
<path d="M135.264 108.742C135.288 108.627 135.512 108.511 135.918 108.334C135.889 108.429 135.677 108.585 135.264 108.742Z" fill="#805AD5"/>
<path d="M126.039 42.4439C126.033 42.4985 125.939 42.5475 125.757 42.6057C125.751 42.5373 125.844 42.4785 126.039 42.4439Z" fill="#805AD5"/>
<path d="M173.287 125.276C173.401 125.298 173.521 125.524 173.708 125.93C173.615 125.9 173.454 125.69 173.287 125.276Z" fill="#805AD5"/>
<path d="M175.029 160.835C175.088 160.824 175.024 160.973 175.01 161.01C174.996 161.046 174.97 160.846 175.029 160.835Z" fill="#805AD5"/>
<path d="M272.817 152.73C272.734 152.706 272.997 152.57 273.068 152.548C273.106 152.651 273.026 152.727 272.817 152.73Z" fill="#805AD5"/>
<path d="M265.691 152.682C265.769 152.615 265.925 152.674 266.179 152.816C266.285 152.88 266.016 152.914 266.016 152.914C266.016 152.914 265.774 152.79 265.691 152.682Z" fill="#805AD5"/>
<path d="M260.882 150.162C260.981 150.138 261.102 150.262 261.284 150.507C261.16 150.579 261.013 150.473 260.882 150.162Z" fill="#805AD5"/>
<path d="M214.453 177.026C214.486 177.006 214.494 177.115 214.487 177.141C214.48 177.167 214.419 177.046 214.453 177.026Z" fill="#805AD5"/>
<path d="M278.391 149.657C278.321 149.621 278.501 149.494 278.552 149.472C278.604 149.45 278.461 149.692 278.391 149.657Z" fill="#805AD5"/>
<path d="M258.936 148.294C259.034 148.255 259.173 148.363 259.39 148.582C259.276 148.672 259.113 148.588 258.936 148.294Z" fill="#805AD5"/>
<path d="M116.302 135.85C116.296 135.686 116.464 135.654 116.549 135.653C116.681 135.84 116.641 136.009 116.418 136.249C116.317 136.233 116.312 136.124 116.302 135.85Z" fill="#805AD5"/>
<path d="M213.819 185.213C213.857 185.211 213.849 185.284 213.844 185.3C213.838 185.316 213.782 185.214 213.819 185.213Z" fill="#805AD5"/>
<path d="M255.581 54.9566C255.465 54.97 255.352 54.8192 255.192 54.5297C255.336 54.4697 255.482 54.6035 255.581 54.9566Z" fill="#805AD5"/>
<path d="M127.075 113.6C127.032 113.468 127.142 113.364 127.379 113.236C127.467 113.378 127.375 113.516 127.075 113.6Z" fill="#805AD5"/>
<path d="M255.213 120.846C255.332 120.802 255.399 120.934 255.381 121.17C255.36 121.242 255.226 120.989 255.213 120.846Z" fill="#805AD5"/>
<path d="M170.709 120.254C170.809 120.249 170.95 120.413 171.173 120.719C171.086 120.715 170.917 120.569 170.709 120.254Z" fill="#805AD5"/>
<path d="M67.587 199.819C67.5383 199.833 67.5764 199.69 67.5954 199.661C67.6144 199.632 67.6356 199.806 67.587 199.819Z" fill="#805AD5"/>
<path d="M168.941 117.692C169.049 117.657 169.186 117.78 169.375 118.045C169.254 118.109 169.102 117.998 168.941 117.692Z" fill="#805AD5"/>
<path d="M155.516 40.7209C155.557 40.7723 155.336 40.7684 155.229 40.7524C155.221 40.6292 155.339 40.607 155.516 40.7209Z" fill="#805AD5"/>
<path d="M168.424 117.095C168.55 117.057 168.654 117.169 168.788 117.404C168.651 117.487 168.512 117.394 168.424 117.095Z" fill="#805AD5"/>
<path d="M123.288 117.46C123.216 117.355 123.294 117.226 123.488 117.043C123.635 117.164 123.58 117.314 123.288 117.46Z" fill="#805AD5"/>
<path d="M164.561 113.309C164.666 113.237 164.795 113.315 164.978 113.508C165.05 113.596 164.793 113.6 164.793 113.6C164.793 113.6 164.6 113.431 164.561 113.309Z" fill="#805AD5"/>
<path d="M171.185 207.549C171.267 207.664 171.177 207.82 170.943 208.04C170.795 207.907 170.866 207.735 171.185 207.549Z" fill="#805AD5"/>
<path d="M217.587 184.435C219.056 168.71 219.548 153.246 219.491 137.741C219.348 98.8486 192.36 67.9528 153.667 62.893C148.11 62.1663 142.433 62.339 136.829 62.9835C133.292 63.3904 129.75 63.3815 126.222 63.1494C122.81 62.9249 119.752 60.3811 119.036 57.5323C118.264 54.4635 119.54 51.105 122.378 49.0438C127.26 45.4975 133.069 44.96 138.752 44.6116C163.376 43.1019 185.618 49.5336 204.678 65.4899C223.027 80.8516 233.976 100.481 236.875 124.254C238.387 136.656 237.723 149.156 237.119 161.632C236.562 173.161 235.811 184.663 234.445 196.123C234.124 198.816 233.619 201.478 232.559 203.993C230.868 208.005 227.392 210.344 223.912 209.866C220.525 209.401 217.363 205.78 217.087 201.54C216.762 196.56 216.725 191.559 217.516 186.595C217.614 185.984 217.563 185.349 217.587 184.435Z" fill="#805AD5"/>
<path d="M202.788 39.9489C191.438 33.0529 179.316 28.6516 166.571 26.2886C156.901 24.4956 147.084 23.5607 137.154 24.572C113.325 26.9987 91.8414 35.1509 73.6446 50.8578C59.8252 62.7863 49.1897 77.1906 42.4793 94.308C39.6325 101.57 36.8684 108.915 35.9363 116.662C35.2315 122.519 34.3381 128.357 33.7549 134.231C33.4031 137.775 32.6389 141.202 30.5953 144.244C26.5403 150.279 18.5197 150.014 14.9948 143.653C11.8509 137.978 12.2666 131.749 12.6296 125.645C13.7 107.648 18.4657 90.6415 26.8053 74.6303C34.329 60.1859 44.0776 47.546 56.2107 36.5972C69.073 24.9904 83.5667 16.2703 99.7605 10.2944C112.85 5.46407 126.354 2.90913 140.357 2.59968C155.137 2.27303 169.706 3.27606 183.925 7.54137C202.946 13.2471 219.983 22.4826 234.866 35.7345C240.727 40.9532 246.173 46.4896 250.78 52.8038C253.82 56.9704 255.651 61.5705 253.544 66.8364C251.905 70.9328 247.76 73.1519 243.459 72.205C240.441 71.5406 237.872 70.0966 235.633 67.9175C229.372 61.8239 223.632 55.182 216.775 49.7161C212.385 46.2166 207.963 42.7369 202.788 39.9489Z" fill="#805AD5"/>
<path d="M56.3355 116.406C58.8598 105.644 62.3058 95.5609 69.0224 86.8809C69.9955 85.6234 71.1673 84.5845 72.5026 83.7834C75.1212 82.2123 77.9206 81.3505 80.7197 83.2367C83.7199 85.2584 85.1805 88.1231 84.5905 91.8131C83.8893 96.1987 81.7816 100.072 79.9345 104.016C75.5591 113.359 72.89 123.076 72.4996 133.443C71.8695 150.172 70.7659 166.863 67.5408 183.344C66.6403 187.946 65.6589 192.514 64.0883 196.94C63.9839 197.234 63.8876 197.531 63.7778 197.823C61.6271 203.543 57.5153 206.448 53.1212 205.354C48.9489 204.314 46.2544 199.402 47.0855 193.675C48.0412 187.09 49.3697 180.56 50.4123 173.986C52.3356 161.861 53.452 149.666 53.8665 137.385C54.1009 130.441 54.5921 123.467 56.3355 116.406Z" fill="#805AD5"/>
<path d="M167.757 113.896C167.432 113.506 167.275 113.196 167.04 112.732C166.067 111.162 164.223 110.704 163.336 108.987C162.692 108.664 162.198 108.487 161.512 108.258C159.131 106.639 156.522 105.945 153.977 104.625C153.537 104.471 153.26 104.469 152.774 104.466C152.019 104.451 151.457 104.509 150.837 103.99C150.023 103.845 149.356 103.843 148.44 103.841C146.878 103.833 145.567 103.842 144.035 103.841C143.148 103.841 142.482 103.843 141.566 103.845C140.939 104.313 140.432 104.475 139.645 104.463C139.161 104.467 138.884 104.469 138.398 104.471C135.552 106.181 132.276 106.565 129.594 108.676C129.431 108.831 129.121 108.833 128.966 108.835C128.483 109.174 128.141 109.499 127.681 109.955C127.037 110.429 126.517 110.777 125.841 111.228C125.152 111.871 124.612 112.402 123.939 113.068C123.661 113.336 123.521 113.473 123.282 113.719C122.647 114.363 122.114 114.902 121.441 115.568C120.934 116.206 120.56 116.71 120.121 117.393C119.719 117.903 119.393 118.243 118.936 118.702C118.81 118.826 118.807 119.135 118.805 119.29C116.46 122.461 115.521 126.078 114.437 129.85C114.428 130.341 114.426 130.617 114.424 131.101C113.91 131.777 113.678 132.293 114.282 133.061C114.415 133.86 114.419 134.524 114.429 135.437C114.434 135.686 114.129 135.69 113.977 135.69C112.985 136.442 113.124 137.316 113.596 138.443C113.778 139.158 113.851 139.652 113.937 140.408C113.937 142.203 114.09 143.752 113.752 145.556C112.275 149.179 113.486 152.685 112.96 156.376C112.992 157.6 112.7 158.549 112.961 159.764C113.071 161.353 113.268 162.665 112.69 164.185C111.929 165.492 111.69 166.609 112.336 168.025C112.571 168.898 112.575 169.555 112.58 170.459C112.861 171.333 112.786 171.983 112.657 172.869C112.541 173.437 112.43 173.744 112.099 174.219C111.942 174.408 111.93 174.398 111.937 174.401C110.884 175.406 111.452 176.699 111.402 178.082C111.766 178.831 111.573 179.553 112.121 180.194C112.209 180.989 112.256 181.564 112.052 182.347C111.953 182.832 111.897 183.108 111.82 183.591C111.807 184.35 111.464 184.848 111.416 185.578C111.219 185.861 111.145 185.977 110.979 186.279C110.68 186.825 110.431 187.167 110.388 187.816C110.37 188.319 110.355 188.609 110.299 189.12C109.397 191.372 110.324 193.763 109.026 195.926C109.126 196.595 109.298 197.012 109.318 197.657C108.977 198.493 108.407 199.047 108.777 200.041C108.783 200.666 109.008 201.05 109.064 201.665C108.785 202.538 109.461 203.364 108.768 204.213C108.579 204.708 108.466 204.994 108.195 205.47C106.757 207.145 106.441 209.103 106.224 210.837C105.798 214.247 104.035 217.113 102.736 220.086C101.891 222.021 99.0133 222.63 96.7638 223.865C95.9919 223.797 95.5781 224.449 94.7859 224.176C92.9833 223.725 91.5838 222.942 89.9546 222.099C89.4347 221.913 89.1758 221.741 88.804 221.342C87.8494 219.904 87.6846 218.289 86.293 217.126C86.034 216.871 85.968 216.734 85.9411 216.373C86.6288 214.388 86.7889 212.549 86.7924 210.48C86.5703 209.85 86.3458 209.463 86.0793 208.853C85.872 208.371 85.8732 208.091 86.1402 207.647C86.2857 207.482 86.3 207.181 86.3081 207.031C86.737 206.566 87.0439 206.196 86.9305 205.429C86.8528 204.706 86.9511 204.2 87.1775 203.514C87.2138 202.919 87.1457 202.532 86.9833 201.962C86.9463 201.636 86.9418 201.505 86.9467 201.178C87.002 200.72 87.1084 200.485 87.4059 200.134C87.5444 199.995 87.5601 199.688 87.5681 199.535C87.9621 198.958 88.4107 198.577 88.598 197.762C88.836 197.299 88.983 197.036 89.2157 196.555C89.5312 194.124 90.0111 191.947 90.5106 189.563C90.6661 189.101 90.6665 188.825 90.6679 188.342C90.7501 187.209 90.4824 186.243 91.1356 185.185C91.2892 184.539 91.2903 184.072 91.2927 183.373C91.2944 181.62 91.3211 180.1 91.2635 178.324C91.1528 177.731 91.0897 177.389 91.0726 176.776C91.6243 174.725 91.4625 172.8 92.371 170.849C92.5396 169.977 92.5405 169.314 92.5421 168.402C92.6974 166.213 92.2423 164.242 93.0018 162.114C93.1672 161.038 93.1675 160.172 93.168 159.047C93.3201 156.269 92.9598 153.753 93.139 150.961C92.7059 149.24 92.9507 147.677 92.4401 145.987C93.7638 142.333 93.2694 138.73 93.787 134.993C93.7545 134.393 93.6932 134.059 93.5776 133.482C94.9247 128.979 94.6263 124.422 96.089 120.159C97.9788 114.652 100.343 109.453 104.282 105.084C104.661 104.664 104.66 104.151 104.911 103.452C107.122 102.056 108.659 100.22 110.491 98.3646C110.652 98.1925 110.681 98.2187 110.667 98.2047C111.587 97.3915 112.376 96.475 113.053 95.2015C113.379 94.8278 113.625 94.6981 114.098 94.5492C115.915 93.1294 117.91 92.3198 119.641 90.7558C120.169 90.3106 120.693 90.4228 121.284 90.0878C126.123 87.1145 131.403 85.9973 136.756 84.382C137.767 84.3969 138.56 83.8186 139.594 84.2314C140.8 84.1677 141.711 83.8481 142.879 83.6066C144.398 83.5276 145.657 83.1283 147.212 83.2418C149.016 83.6941 150.476 84.4854 152.392 84.4232C152.958 84.336 153.285 84.2854 153.865 84.3064C157.981 85.7302 162.009 86.5952 165.861 88.0481C168.407 89.0087 170.858 90.0923 173.045 91.7139C173.862 92.3201 174.876 92.9048 173.884 94.4029C171.179 95.7922 169.629 93.7008 167.839 92.814C150.033 83.9891 128.756 86.7747 114.163 99.5232C103.36 108.96 98.1367 121.16 97.3675 135.237C96.5643 149.935 96.158 164.648 94.776 179.319C93.9461 188.13 92.3411 196.795 90.9849 205.514C90.5406 208.37 89.7264 211.198 90.5339 214.221C91.2277 216.818 92.5199 218.476 95.1907 218.736C97.9236 219.002 99.6335 217.427 100.797 215.135C103.264 210.275 103.915 204.959 104.805 199.681C106.197 191.423 107.25 183.135 108.072 174.799C109.237 162.993 109.252 151.146 109.737 139.318C110.129 129.765 112.54 120.819 118.803 113.564C133.719 96.2841 157.403 96.7584 172.012 112.324C177.58 118.256 180.39 125.435 181.283 133.458C182.84 147.45 181.606 161.403 180.839 175.368C180.211 186.804 179.148 198.196 177.751 209.562C177.457 211.949 177.499 214.385 177.61 216.788C177.768 220.162 179.858 222.801 182.375 223.108C184.766 223.401 186.692 221.669 188.208 218.437C190.313 213.949 190.397 209.093 190.992 204.354C192.13 195.286 193.003 186.186 193.402 177.046C193.984 163.729 194.758 150.428 194.299 137.076C193.912 125.788 191.241 115.406 184.167 106.379C183.444 105.456 182.255 104.554 183.138 102.788C184.939 101.278 185.966 102.895 186.579 103.678C192.595 111.353 196.365 119.957 197.303 129.782C198.318 140.417 197.762 151.055 197.808 161.693C197.811 162.39 197.667 163.031 197.594 163.962C197.902 166.763 198.34 169.286 198.173 172.11C198.046 173.182 197.197 173.783 197.507 174.948C197.524 175.52 197.449 175.833 197.215 176.356C196.811 181.928 196.195 187.262 196.368 192.88C196.454 194.249 196.037 195.331 196.04 196.675C195.595 197.579 195.394 198.311 195.387 199.318C195.913 202.079 194.867 204.487 194.741 207.193C194.23 208.051 194.265 208.819 194.113 209.743C194.098 210.675 194.259 211.398 193.976 212.306C193.868 212.502 193.853 212.807 193.844 212.96C192.87 213.792 193.02 214.832 192.859 215.824C191.954 221.412 189.434 225.874 183.703 228.23C183.172 228.36 182.862 228.39 182.318 228.386C181.469 228.338 180.903 228.096 180.099 227.871C179.728 227.806 179.578 227.789 179.211 227.716C177.77 226.356 176.642 224.961 175.155 223.612C174.472 222.852 174.46 222.022 174.083 221.133C174.066 220.429 173.968 219.979 173.675 219.336C173.643 218.785 173.696 218.47 173.789 217.916C173.485 216.378 173.931 215.08 173.789 213.54C173.831 212.657 173.324 212.059 173.66 211.171C174.043 210.287 174.66 209.687 174.068 208.609C173.828 207.366 174.049 206.382 174.306 205.187C174.534 204.437 174.841 203.92 174.737 203.087C174.892 201.829 174.283 200.796 174.888 199.554C175.037 199.083 175.037 198.808 175.039 198.327C175.089 196.687 175.535 195.286 175.486 193.591C176.267 192.326 175.741 191.112 176.05 189.777C175.912 188.351 176.18 187.179 176.023 185.76C176.9 184.25 176.433 182.805 176.643 181.193C176.242 179.919 176.683 178.777 176.075 177.54C176.95 175.694 177.334 174.021 177.311 171.992C177.147 170.393 177.548 169.032 177.263 167.444C178.07 165.878 177.766 164.448 177.706 162.818C177.616 162.261 177.646 161.942 177.826 161.401C178.374 160.235 178.106 159.228 178.132 158.012C177.811 155.281 177.48 152.797 177.585 150.026C178.146 147.487 178.588 145.202 177.946 142.615C177.832 141.216 178.129 140.06 178.006 138.659C178.33 136.847 177.867 135.271 178.193 133.449C177.616 130.633 177.044 128.08 176.391 125.303C175.626 124.446 175.321 123.546 174.596 122.705C174.429 121.347 174.1 120.221 173.305 119.018C172.858 118.497 172.531 118.158 172.07 117.702C171.601 117.055 171.254 116.535 170.801 115.86C170.448 115.432 170.182 115.188 169.63 115.079C168.941 114.702 168.434 114.339 167.757 113.896Z" fill="#805AD5"/>
<path d="M197.163 164.561C196.961 155.591 197.099 146.765 196.917 137.945C196.672 126.077 193.99 114.911 186.486 105.329C185.788 104.438 184.939 103.666 183.773 102.687C180.654 99.4867 177.215 97.2667 173.963 94.2538C169.209 89.4532 163.128 88.2992 157.371 86.453C156.302 86.1101 155.132 86.0817 154.004 85.2349C153.644 83.3968 154.813 83.8987 155.631 84.0716C162.421 85.5053 168.958 87.5903 174.906 91.7909C175.094 91.9563 175.397 91.9608 175.549 91.9647C176.024 92.3137 176.368 92.638 176.835 93.0901C177.71 93.7369 178.456 94.261 179.331 94.934C180.078 95.7759 180.752 96.3952 181.803 96.8394C183.282 97.7896 184.127 99.0274 184.977 100.528C185.601 101.26 186.15 101.785 186.83 102.446C187.112 102.709 187.251 102.847 187.487 103.095C192.624 110.294 196.2 118.028 198.053 126.764C198.212 127.216 198.215 127.493 198.218 127.979C198.204 128.883 198.199 129.579 198.226 130.484C198.433 131.982 198.631 133.27 198.835 134.807C198.814 141.942 198.839 148.83 198.835 156.004C198.802 158.839 199.013 161.403 198.3 164.164C198.003 164.674 197.708 164.77 197.163 164.561Z" fill="#805AD5"/>
<path d="M105.356 103.057C105.403 103.988 105.284 104.88 104.809 105.503C98.8636 113.303 96.0955 122.28 94.889 131.852C94.8509 132.154 94.7073 132.442 94.5151 132.959C92.349 132.937 93.4051 131.539 93.6021 130.279C93.7696 129.767 93.768 129.497 93.7691 129.023C94.4165 121.759 96.753 115.261 100.499 108.997C100.661 108.814 100.665 108.51 100.669 108.358C101.018 107.883 101.342 107.54 101.791 107.07C101.912 106.94 101.915 106.636 101.919 106.484C102.267 106.01 102.593 105.667 103.05 105.205C103.334 104.768 103.498 104.461 103.729 103.994C104.181 103.488 104.5 103.057 105.356 103.057Z" fill="#805AD5"/>
<path d="M140.208 84.9535C139.192 85.0993 138.325 85.1025 137.199 85.1069C132.105 86.0048 127.58 87.9602 122.688 89.0143C123.085 87.8699 124.017 87.4013 124.981 86.9947C132.863 83.6715 140.995 81.8843 149.838 83.123C150.055 84.9013 148.969 84.4072 147.796 84.047C146.264 84.0567 144.97 84.2378 143.433 84.4508C142.244 84.568 141.251 84.2529 140.208 84.9535Z" fill="#805AD5"/>
<path d="M174.244 217.962C174.439 218.391 174.439 218.667 174.44 219.149C174.443 219.732 174.55 220.07 174.933 220.484C175.22 221.311 175.381 222.007 175.619 222.905C176.534 224.566 177.477 225.924 179.287 226.72C179.448 226.853 179.758 226.859 179.913 226.861C180.452 227.32 180.959 227.485 181.745 227.478C182.23 227.484 182.508 227.484 182.994 227.484C185.364 228.12 186.559 225.568 188.731 226.049C186.018 230.334 179.001 230.416 175.67 226.234C173.921 224.038 172.666 221.496 173.08 218.297C173.399 217.846 173.699 217.75 174.244 217.962Z" fill="#805AD5"/>
<path d="M198.197 126.686C197.371 126.383 197.037 125.534 196.82 124.6C195.276 117.968 192.709 111.786 188.777 106.188C188.256 105.446 188.025 104.501 187.625 103.427C193.696 109.774 196.657 117.777 198.197 126.686Z" fill="#805AD5"/>
<path d="M174.991 91.7756C169.517 89.2833 164.024 86.3995 157.873 85.1803C156.667 84.9412 155.482 84.4555 154.024 85.0183C153.542 85.1013 153.265 85.1007 152.781 85.0998C152.311 84.8592 152.209 84.5636 152.412 84.0127C154.2 82.9779 155.849 83.5059 157.439 83.9074C163.684 85.4842 169.979 86.9798 174.991 91.7756Z" fill="#805AD5"/>
<path d="M198.94 156.055C197.708 149.383 198.039 142.459 198.74 135.294C199.955 141.967 199.628 148.891 198.94 156.055Z" fill="#805AD5"/>
<path d="M188.844 226.24C187.07 226.622 185.677 228.441 183.393 227.563C188.224 225.442 190.606 221.389 191.722 216.358C191.985 215.172 191.963 213.807 193.623 213.184C193.841 213.577 193.849 214.044 193.857 214.744C192.937 218.892 192.378 222.963 189.009 226.068C188.848 226.237 188.839 226.234 188.844 226.24Z" fill="#805AD5"/>
<path d="M100.483 108.921C97.7463 115.107 95.3496 121.576 93.8792 128.608C93.2953 127.848 93.2176 126.83 93.4877 125.794C95.0221 119.907 96.1649 113.86 100.483 108.921Z" fill="#805AD5"/>
<path d="M195.991 193.159C194.498 187.556 195.55 182.125 196.848 176.486C197.061 176.178 197.174 176.087 197.459 176.127C197.628 176.925 197.623 177.593 197.616 178.51C197.553 180.684 197.589 182.609 197.592 184.774C197.596 185.292 197.596 185.569 197.596 186.054C196.654 188.476 198.073 191.135 195.991 193.159Z" fill="#805AD5"/>
<path d="M93.3698 145.431C93.3899 147.168 93.5884 148.657 93.7892 150.402C93.552 150.922 93.2564 151.025 92.7036 150.823C91.2855 145.954 91.4329 141.259 92.9672 136.429C94.3433 139.191 93.8079 142.193 93.3698 145.431Z" fill="#805AD5"/>
<path d="M122.369 88.8955C127.224 87.6349 131.534 85.0348 136.742 85.0531C135.383 86.7229 133.152 86.4713 131.26 87.1583C128.09 88.3099 124.916 89.4512 121.523 90.6578C121.043 90.4832 120.944 90.1931 121.145 89.6489C121.592 89.286 121.899 89.1226 122.369 88.8955Z" fill="#805AD5"/>
<path d="M195.671 193.366C196.941 191.112 195.551 188.477 197.419 186.414C199.168 190.248 196.848 193.873 196.444 197.909C195.474 198.595 195.264 198.007 195.092 197.111C195.269 195.784 195.455 194.693 195.671 193.366Z" fill="#805AD5"/>
<path d="M189.048 226.163C191.03 222.873 192.321 219.117 193.737 215.171C193.761 219.277 193.027 223.313 189.048 226.163Z" fill="#805AD5"/>
<path d="M93.3634 145.523C93.1787 142.741 93.1676 139.8 93.1476 136.564C93.1388 135.808 93.1389 135.348 93.1398 134.656C93.3809 134.168 93.6746 134.071 94.219 134.28C94.0358 138.065 95.3465 141.84 93.3634 145.523Z" fill="#805AD5"/>
<path d="M193.881 207.711C194.119 204.959 195.078 202.485 194.472 199.632C194.883 198.986 195.349 198.804 196.125 199.218C196.268 202.177 195.873 204.934 195.195 207.895C194.643 208.465 194.27 208.301 193.881 207.711Z" fill="#805AD5"/>
<path d="M177.567 177.262C177.561 178.585 177.559 179.651 177.556 180.983C177.142 181.65 176.678 181.827 175.906 181.425C175.553 181.122 175.408 180.982 175.148 180.743C175.095 178.64 175.003 176.612 176.183 174.585C178.454 174.422 177.189 176.111 177.567 177.262Z" fill="#805AD5"/>
<path d="M196.967 164.686C197.249 164.416 197.532 164.415 198.03 164.416C199.153 167.154 199.03 169.912 198.32 172.916C198.11 173.242 197.997 173.333 197.716 173.287C197.355 170.419 197.162 167.688 196.967 164.686Z" fill="#805AD5"/>
<path d="M92.4571 150.885C92.7872 150.673 93.0739 150.669 93.5749 150.661C93.6723 153.212 94.1484 155.799 93.2673 158.551C92.8145 157.058 92.4609 155.329 92.0095 153.379C92.079 152.469 92.2464 151.781 92.4571 150.885Z" fill="#805AD5"/>
<path d="M176.932 185.403C176.936 186.908 176.935 188.178 176.932 189.72C176.518 190.392 176.054 190.569 175.281 190.166C175.119 188.276 174.869 186.522 175.587 184.609C176.56 183.916 176.766 184.506 176.932 185.403Z" fill="#805AD5"/>
<path d="M176.307 193.52C176.293 195.169 176.245 196.575 175.182 197.944C174.294 196.418 174.274 194.69 174.96 192.718C175.932 192.031 176.139 192.622 176.307 193.52Z" fill="#805AD5"/>
<path d="M110.455 98.2652C109.816 100.461 108.16 101.963 105.886 103.148C105.688 103.223 105.681 103.217 105.679 103.215C105.402 102.987 105.301 102.698 105.521 102.151C107.327 100.913 108.37 99.0902 110.455 98.2652Z" fill="#805AD5"/>
<path d="M197.689 184.788C196.762 183.104 196.766 181.168 197.51 178.986C198.4 180.673 198.397 182.608 197.689 184.788Z" fill="#805AD5"/>
<path d="M177.033 185.415C176.602 185.3 176.269 184.964 175.808 184.503C175.685 183.513 175.688 182.648 175.693 181.523C176.159 181.26 176.624 181.258 177.321 181.252C177.55 182.578 177.663 183.92 177.033 185.415Z" fill="#805AD5"/>
<path d="M152.351 83.7673C152.562 84.0979 152.565 84.3842 152.571 84.8846C150.969 84.9794 149.243 85.4987 147.708 84.0442C148.265 83.7207 148.973 83.5662 149.878 83.316C150.763 83.388 151.453 83.5556 152.351 83.7673Z" fill="#805AD5"/>
<path d="M174.442 217.836C174.153 218.11 173.867 218.107 173.365 218.099C172.767 216.588 173.017 215.078 173.148 213.334C173.402 212.842 173.696 212.745 174.242 212.955C174.441 214.586 174.443 216.072 174.442 217.836Z" fill="#805AD5"/>
<path d="M175.021 204.773C174.899 206.09 174.728 207.185 174.504 208.511C174.338 208.836 174.224 208.93 173.936 208.889C173.161 207.449 173.073 206.125 173.711 204.571C174.259 204.022 174.633 204.181 175.021 204.773Z" fill="#805AD5"/>
<path d="M174.871 199.501C175.244 200.449 175.45 201.541 175.671 202.871C175.269 203.508 174.803 203.691 174.027 203.277C173.857 201.893 173.69 200.618 174.871 199.501Z" fill="#805AD5"/>
<path d="M94.4169 134.219C94.1328 134.427 93.8496 134.427 93.3531 134.427C92.5478 133.005 92.2263 131.605 93.6093 130.179C93.9247 130.948 94.0778 131.857 94.3244 132.974C94.4178 133.459 94.4177 133.735 94.4169 134.219Z" fill="#805AD5"/>
<path d="M176.409 193.538C175.977 193.418 175.643 193.081 175.181 192.62C175.057 191.831 175.061 191.167 175.067 190.254C175.534 190.002 175.999 189.999 176.696 189.994C176.788 191.101 176.647 192.212 176.409 193.538Z" fill="#805AD5"/>
<path d="M174.439 212.852C174.155 213.101 173.871 213.102 173.373 213.101C172.667 212.072 172.493 211.077 173.613 210.076C174.03 209.938 174.238 210.041 174.417 210.429C174.437 211.277 174.438 211.94 174.439 212.852Z" fill="#805AD5"/>
<path d="M121.071 89.4848C121.29 89.7326 121.294 90.0148 121.301 90.5084C120.995 90.8855 120.688 91.0514 120.218 91.282C119.706 91.6619 119.286 91.807 118.489 91.5894C118.714 90.2112 119.671 89.6936 121.071 89.4848Z" fill="#805AD5"/>
<path d="M113.605 95.5234C113.093 96.7441 112.286 97.6571 110.85 98.128C110.989 97.4657 111.325 96.7412 111.786 95.8588C112.347 95.322 112.824 95.1074 113.605 95.5234Z" fill="#805AD5"/>
<path d="M114.779 94.0581C115.097 92.451 116.242 91.6966 117.937 91.3618C118.15 91.3215 118.167 91.3373 118.174 91.3449C118.192 93.3786 116.196 93.3455 114.779 94.0581Z" fill="#805AD5"/>
<path d="M194.03 212.372C193.671 211.809 193.471 211.117 193.244 210.212C193.632 209.596 194.1 209.423 194.874 209.828C195.031 210.838 194.892 211.653 194.03 212.372Z" fill="#805AD5"/>
<path d="M113.908 95.6117C113.329 95.7115 112.857 95.7097 112.148 95.7038C112.282 94.726 112.948 94.0944 114.201 93.862C114.406 93.8202 114.421 93.8347 114.428 93.8415C114.69 94.0833 114.789 94.3717 114.58 94.9028C114.293 95.2338 114.155 95.3733 113.908 95.6117Z" fill="#805AD5"/>
<path d="M195.087 209.758C194.618 209.993 194.151 209.994 193.45 209.996C193.36 209.292 193.504 208.586 193.741 207.685C194.151 207.648 194.467 207.806 194.942 208.044C195.097 208.59 195.093 209.057 195.087 209.758Z" fill="#805AD5"/>
<path d="M196.337 199.17C195.868 199.378 195.4 199.379 194.699 199.382C194.608 198.677 194.751 197.971 194.987 197.07C195.417 197.21 195.753 197.546 196.217 198.007C196.343 198.409 196.341 198.685 196.337 199.17Z" fill="#805AD5"/>
<path d="M197.416 173.239C197.662 173.149 197.774 173.149 198.056 173.149C198.222 173.619 198.219 174.088 198.215 174.792C197.973 175.279 197.681 175.377 197.144 175.17C196.658 174.377 196.653 173.791 197.416 173.239Z" fill="#805AD5"/>
<path d="M173.813 203.321C174.283 203.112 174.751 203.112 175.452 203.109C175.541 203.617 175.397 204.128 175.161 204.815C174.753 204.834 174.437 204.676 173.962 204.439C173.806 204.084 173.809 203.806 173.813 203.321Z" fill="#805AD5"/>
<path d="M181.838 96.8028C180.942 96.8336 180.069 96.4826 179.541 95.2752C180.381 95.3598 181.148 95.8593 181.838 96.8028Z" fill="#805AD5"/>
<path d="M198.313 130.52C197.834 130 197.696 129.285 198.135 128.357C198.597 128.881 198.726 129.596 198.313 130.52Z" fill="#805AD5"/>
<path d="M186.891 102.394C186.18 102.316 185.555 101.868 185.161 100.886C185.863 100.976 186.483 101.429 186.891 102.394Z" fill="#805AD5"/>
<path d="M105.486 102.029C105.671 102.232 105.675 102.513 105.679 103.003C105.181 103.388 104.683 103.562 103.991 103.786C104.07 103.058 104.52 102.437 105.486 102.029Z" fill="#805AD5"/>
<path d="M174.505 210.464C174.286 210.467 174.138 210.321 173.878 210.063C173.769 209.685 173.77 209.418 173.767 208.951C173.876 208.749 173.991 208.747 174.278 208.742C174.492 209.265 174.533 209.79 174.505 210.464Z" fill="#805AD5"/>
<path d="M176.868 93.0595C176.603 92.9022 176.245 92.5908 175.793 92.1244C176.059 92.2814 176.417 92.5934 176.868 93.0595Z" fill="#805AD5"/>
<path d="M196.95 175.229C197.231 175.022 197.511 175.023 198.002 175.026C198.076 175.34 197.939 175.653 197.716 176.112C197.516 176.261 197.402 176.263 197.117 176.268C196.948 175.993 196.949 175.715 196.95 175.229Z" fill="#805AD5"/>
<path d="M103.018 105.167C102.86 105.432 102.548 105.79 102.08 106.24C102.238 105.975 102.55 105.617 103.018 105.167Z" fill="#805AD5"/>
<path d="M101.758 107.036C101.601 107.302 101.292 107.662 100.827 108.115C100.983 107.849 101.294 107.49 101.758 107.036Z" fill="#805AD5"/>
<path d="M154.086 193.426C151.68 214.51 148.216 235.096 141.789 255.092C140.89 257.89 139.601 260.466 137.778 262.798C134.554 266.922 130.212 268.415 125.991 266.74C121.746 265.056 119.195 260.253 119.806 255.242C120.326 250.987 121.551 246.898 122.645 242.779C128.396 221.122 131.775 199.122 133.37 176.756C134.228 164.722 133.849 152.656 135.063 140.655C135.461 136.716 136.505 133.123 139.512 130.306C144.016 126.085 150.788 126.998 153.963 132.309C156.35 136.303 156.898 140.813 156.861 145.258C156.76 157.2 156.242 169.137 155.222 181.043C154.876 185.079 154.497 189.113 154.086 193.426Z" fill="#805AD5"/>
<path d="M277.555 134.223C277.257 136.673 276.998 138.859 276.116 140.871C274.873 143.71 272.803 145.829 269.591 145.933C266.442 146.035 264.173 144.358 262.648 141.495C260.918 138.248 260.606 134.729 260.437 131.23C260.117 124.637 258.147 118.099 259.646 111.444C260.385 108.163 262.174 105.62 265.621 104.983C268.962 104.367 271.39 106.235 273.301 108.771C275.037 111.075 275.742 113.817 276.183 116.592C277.095 122.334 277.616 128.116 277.555 134.223Z" fill="#805AD5"/>
<path d="M96.2617 223.371C102.681 221.159 104.039 215.621 105.572 210.204C106.044 208.535 105.893 206.66 107.372 205.127C109.144 205.555 109.163 205.773 107.708 208.562C106.807 212.534 105.598 216.129 103.818 219.594C102.869 221.442 101.818 222.677 99.6099 223.047C98.4424 223.714 97.5647 225.085 96.2617 223.371Z" fill="#805AD5"/>
<path d="M112.144 157.079C112.333 153.28 111.014 149.506 112.988 145.824C113.415 145.658 113.623 145.752 113.808 146.127C114.032 149.708 114.325 153.109 113.881 156.716C113.389 157.313 112.918 157.486 112.144 157.079Z" fill="#805AD5"/>
<path d="M110.687 180.826C110.69 179.975 110.692 179.311 110.693 178.398C110.945 177.812 111.115 177.388 111.776 177.412C113.747 180.415 113.774 183.243 111.506 186.135C111.216 186.355 111.107 186.445 110.838 186.396C110.679 185.593 110.68 184.927 110.682 184.012C110.969 183.507 111.203 183.229 111.047 182.632C110.737 182.006 110.673 181.517 110.687 180.826Z" fill="#805AD5"/>
<path d="M107.744 208.626C107.339 207.597 108.342 206.489 107.621 205.153C107.544 204.711 107.547 204.435 107.552 203.952C107.567 203.197 107.509 202.635 108.027 202.015C108.172 201.398 108.174 200.931 108.178 200.231C108.629 199.714 108.934 199.915 109.314 200.46C110.524 203.555 109.858 206.151 107.744 208.626Z" fill="#805AD5"/>
<path d="M114 146.154C113.677 146.167 113.527 146.027 113.271 145.773C113.167 143.982 113.173 142.299 113.18 140.336C113.418 139.798 113.708 139.698 114.245 139.904C115.138 142.072 115.585 144.079 114 146.154Z" fill="#805AD5"/>
<path d="M112.112 165.172C111.942 163.548 111.94 162.069 111.938 160.314C112.355 159.636 112.825 159.466 113.6 159.872C114.583 161.804 114.753 163.47 112.815 164.928C112.518 165.139 112.399 165.228 112.112 165.172Z" fill="#805AD5"/>
<path d="M86.764 209.854C87.7261 211.995 87.9017 213.965 86.4556 216.031C86.2101 216.309 86.1056 216.406 85.8337 216.37C85.8412 214.322 86.0161 212.407 86.2247 210.24C86.3709 209.898 86.4834 209.809 86.764 209.854Z" fill="#805AD5"/>
<path d="M89.2627 220.43C89.5687 220.737 89.709 220.875 89.9489 221.121C90.4523 221.674 90.9946 222.04 90.7991 222.941C88.0425 222.722 86.8201 220.998 86.3262 218.332C88.6186 217.018 88.0341 219.71 89.2627 220.43Z" fill="#805AD5"/>
<path d="M96.0692 223.102C97.2026 223.56 98.1211 223.42 99.2445 223.149C98.3181 225.172 96.1763 225.092 94.0424 225.566C93.5683 225.354 93.3681 225.088 93.1428 224.552C93.1415 223.765 93.4193 223.387 94.1793 223.144C94.8961 223.103 95.3653 223.103 96.0692 223.102Z" fill="#805AD5"/>
<path d="M108.97 196.433C108.34 193.867 109.049 191.578 109.4 189.006C109.545 188.662 109.655 188.567 109.982 188.482C110.626 188.735 110.73 189.145 110.743 189.804C110.709 190.683 110.703 191.345 110.694 192.256C110.614 192.887 110.389 193.203 110.171 193.73C110.097 194.04 110.081 194.166 110.047 194.484C109.976 194.928 109.873 195.158 109.595 195.512C109.47 195.658 109.478 195.962 109.478 196.114C109.364 196.383 109.249 196.499 108.97 196.433Z" fill="#805AD5"/>
<path d="M94.2389 223.003C94.2715 223.415 94.115 223.725 93.8803 224.191C92.7086 225.416 91.8813 224.43 90.8282 223.858C90.672 223.734 90.6679 223.431 90.6672 223.28C90.4954 222.624 90.3243 222.119 90.1025 221.421C91.3845 221.786 92.7171 222.343 94.2389 223.003Z" fill="#805AD5"/>
<path d="M113.812 159.775C113.343 160.035 112.874 160.035 112.171 160.036C111.937 159.169 111.935 158.301 111.935 157.174C112.404 156.914 112.872 156.913 113.575 156.913C113.81 157.781 113.811 158.648 113.812 159.775Z" fill="#805AD5"/>
<path d="M89.3675 220.392C88.5024 219.836 87.5773 219.068 86.4747 218.204C86.2972 218.107 86.2891 217.804 86.2867 217.652C86.2024 217.383 86.1205 217.265 86.1863 216.992C88.1909 217.183 88.8193 218.62 89.3675 220.392Z" fill="#805AD5"/>
<path d="M87.3835 201.134C87.5641 201.249 87.5696 201.553 87.5706 201.705C87.8269 202.118 88.0718 202.386 88.1677 202.939C88.0024 203.815 87.8276 204.509 87.6058 205.413C87.3174 205.774 87.0749 205.783 86.7375 205.452C86.5636 204.887 86.3691 204.531 86.3004 203.937C86.2919 203.273 86.2949 202.806 86.3011 202.105C86.5661 201.548 86.7337 201.125 87.3835 201.134Z" fill="#805AD5"/>
<path d="M112.117 173.305C111.926 172.492 111.928 171.823 111.933 170.903C112.172 170.395 112.464 170.295 113.005 170.499C113.573 171.346 113.697 172.061 113.261 172.979C112.944 173.405 112.655 173.505 112.117 173.305Z" fill="#805AD5"/>
<path d="M111.956 177.271C111.639 177.685 111.322 177.839 110.849 178.071C110.736 176.926 110.547 175.641 111.772 174.542C111.948 175.272 111.953 176.141 111.956 177.271Z" fill="#805AD5"/>
<path d="M90.7844 223.903C91.7728 223.112 92.5347 224.188 93.6457 224.321C93.8018 224.623 93.8023 224.901 93.803 225.387C92.7135 225.319 91.6082 225.072 90.7844 223.903Z" fill="#805AD5"/>
<path d="M109.56 193.909C109.748 193.398 110.063 193.043 110.533 192.597C111.105 193.706 110.777 194.677 109.623 195.55C109.458 195.373 109.449 195.088 109.436 194.591C109.517 194.273 109.602 194.17 109.56 193.909Z" fill="#805AD5"/>
<path d="M111.854 165.212C112.059 165.029 112.174 165.033 112.463 165.043C112.623 165.705 112.609 166.361 112.592 167.264C112.768 167.838 112.698 168.101 112.152 168.226C111.452 167.261 111.317 166.347 111.854 165.212Z" fill="#805AD5"/>
<path d="M109.445 200.373C109.128 200.467 108.812 200.31 108.339 200.076C107.883 199.351 107.883 198.764 108.653 198.213C108.902 198.033 109.016 197.942 109.3 197.989C109.463 198.792 109.455 199.458 109.445 200.373Z" fill="#805AD5"/>
<path d="M86.769 204.86C87.0627 205.139 87.2018 205.279 87.4508 205.519C87.9763 206.586 87.7893 207.122 86.464 206.915C86.3095 206.407 86.3009 205.934 86.292 205.226C86.3983 204.901 86.5049 204.812 86.769 204.86Z" fill="#805AD5"/>
<path d="M111.924 168.406C112.073 168.016 112.221 167.873 112.477 167.619C112.785 168.4 112.985 169.291 113.191 170.414C112.917 170.647 112.636 170.649 112.143 170.651C111.93 169.986 111.927 169.32 111.924 168.406Z" fill="#805AD5"/>
<path d="M110.26 188.907C109.961 188.759 109.856 188.758 109.592 188.757C109.435 188.48 109.437 188.203 109.44 187.719C109.771 187.179 110.097 186.843 110.55 186.384C110.67 186.256 110.679 186.258 110.679 186.259C110.786 186.26 110.894 186.261 111.163 186.264C111.324 186.931 111.322 187.596 111.321 188.51C111.088 189.019 110.798 189.117 110.26 188.907Z" fill="#805AD5"/>
<path d="M113.342 138.318C112.757 137.34 112.667 136.547 113.674 135.794C113.835 136.356 113.843 137.02 113.85 137.934C113.737 138.273 113.624 138.363 113.342 138.318Z" fill="#805AD5"/>
<path d="M109.58 198.047C109.356 198.125 109.243 198.125 108.959 198.124C108.793 197.655 108.798 197.187 108.805 196.486C108.918 196.254 109.03 196.256 109.31 196.263C109.851 196.797 110.398 197.304 109.58 198.047Z" fill="#805AD5"/>
<path d="M89.2119 197.961C89.0767 198.691 88.6102 199.109 87.7642 199.332C87.569 199.101 87.561 198.821 87.5515 198.332C87.9723 197.742 88.4338 197.537 89.2119 197.961Z" fill="#805AD5"/>
<path d="M89.4258 197.914C88.9571 198.122 88.4887 198.123 87.7859 198.123C87.5506 197.846 87.5496 197.568 87.5481 197.083C87.825 196.875 88.1025 196.874 88.5881 196.874C88.9009 196.783 89.0056 196.693 89.2667 196.739C89.4239 197.152 89.425 197.429 89.4258 197.914Z" fill="#805AD5"/>
<path d="M110.132 188.924C110.345 188.759 110.624 188.759 111.113 188.759C111.45 189.221 111.362 189.609 110.827 189.952C110.542 189.71 110.369 189.4 110.132 188.924Z" fill="#805AD5"/>
<path d="M113.173 138.419C113.284 138.185 113.397 138.184 113.68 138.185C114.025 138.678 114.201 139.171 114.408 139.86C114.16 140.055 113.881 140.056 113.392 140.057C113.18 139.589 113.177 139.121 113.173 138.419Z" fill="#805AD5"/>
<path d="M87.5615 201.038C87.2477 201.403 86.9326 201.558 86.4602 201.792C86.611 201.318 86.9191 200.767 87.3866 200.104C87.5507 200.272 87.5554 200.55 87.5615 201.038Z" fill="#805AD5"/>
<path d="M86.3271 216.679C86.3239 216.946 86.3156 217.056 86.2949 217.332C85.8806 217.281 85.5552 217.012 85.6403 216.362C85.7733 216.231 85.8811 216.227 86.151 216.217C86.3159 216.315 86.3189 216.419 86.3271 216.679Z" fill="#805AD5"/>
<path d="M86.8696 209.826C86.8192 209.989 86.7071 209.989 86.4263 209.989C86.0989 209.68 85.9402 209.373 85.7209 208.902C85.7706 208.647 85.8809 208.555 86.159 208.598C86.4873 209.043 86.6476 209.353 86.8696 209.826Z" fill="#805AD5"/>
<path d="M86.8595 204.832C86.8191 204.996 86.7135 204.995 86.4494 204.992C86.2592 204.654 86.2276 204.318 86.2417 203.86C86.4563 204.048 86.6253 204.358 86.8595 204.832Z" fill="#805AD5"/>
<path d="M86.319 208.524C86.2139 208.734 86.103 208.735 85.8256 208.738C85.5329 208.273 85.6248 207.884 86.1704 207.549C86.2946 207.76 86.3039 208.038 86.319 208.524Z" fill="#805AD5"/>
<path d="M111.924 173.368C112.201 173.157 112.48 173.154 112.968 173.149C112.868 173.505 112.558 173.863 112.095 174.314C111.936 174.13 111.931 173.853 111.924 173.368Z" fill="#805AD5"/>
<path d="M114.538 129.911C114.545 126.126 115.738 122.601 118.621 119.551C118.037 122.295 116.088 124.709 115.714 127.952C115.336 128.711 114.991 129.234 114.538 129.911Z" fill="#805AD5"/>
<path d="M129.652 108.77C131.451 105.949 134.792 105.649 137.966 104.527C135.895 106.817 132.64 107.289 129.652 108.77Z" fill="#805AD5"/>
<path d="M153.916 104.634C156.359 105.355 159.232 105.523 161.218 108.022C159.41 108.157 157.883 106.974 155.915 106.386C155.135 105.822 154.575 105.309 153.916 104.634Z" fill="#805AD5"/>
<path d="M144.023 103.932C145.108 103.199 146.426 103.097 147.982 103.748C146.898 104.478 145.58 104.58 144.023 103.932Z" fill="#805AD5"/>
<path d="M123.99 113.126C124.084 112.428 124.533 111.807 125.503 111.407C125.412 112.106 124.963 112.728 123.99 113.126Z" fill="#805AD5"/>
<path d="M121.492 115.626C121.583 114.927 122.031 114.305 122.999 113.901C122.911 114.601 122.463 115.224 121.492 115.626Z" fill="#805AD5"/>
<path d="M150.78 103.981C151.198 103.991 151.706 104.137 152.391 104.373C151.918 104.759 151.329 104.754 150.78 103.981Z" fill="#805AD5"/>
<path d="M139.59 104.523C139.934 104.28 140.428 104.096 141.12 103.878C140.959 104.449 140.497 104.83 139.59 104.523Z" fill="#805AD5"/>
<path d="M118.965 118.733C119.124 118.47 119.436 118.115 119.902 117.665C119.744 117.928 119.431 118.283 118.965 118.733Z" fill="#805AD5"/>
<path d="M127.713 109.987C127.874 109.726 128.189 109.373 128.659 108.928C128.498 109.189 128.183 109.542 127.713 109.987Z" fill="#805AD5"/>
<path d="M178.378 149.213C178.412 152.153 178.612 154.879 178.813 157.879C178.575 158.416 178.28 158.52 177.728 158.318C176.481 151.675 176.798 145.165 177.433 138.413C177.777 137.922 178.076 137.826 178.619 138.039C178.814 139.465 178.815 140.737 178.815 142.281C178.716 144.702 179.103 146.87 178.378 149.213Z" fill="#805AD5"/>
<path d="M178.138 166.687C178.183 168.382 178.182 169.856 178.179 171.607C177.765 172.285 177.299 172.46 176.525 172.055C176.305 170.209 176.295 168.524 176.276 166.559C176.377 166.277 176.488 166.276 176.765 166.274C177.386 165.93 177.755 166.098 178.138 166.687Z" fill="#805AD5"/>
<path d="M178.281 166.698C177.873 166.747 177.561 166.588 177.091 166.351C176.936 165.202 176.938 164.132 176.942 162.794C177.183 162.273 177.475 162.176 178.012 162.383C178.841 163.826 178.945 165.144 178.281 166.698Z" fill="#805AD5"/>
<path d="M178.815 137.927C178.527 138.187 178.242 138.183 177.742 138.176C177.364 137.284 177.201 136.395 176.986 135.287C177.281 134.544 177.629 134.02 178.083 133.341C178.924 134.604 178.808 136.143 178.815 137.927Z" fill="#805AD5"/>
<path d="M177.529 158.43C177.81 158.166 178.097 158.161 178.597 158.154C178.671 159.056 178.531 159.962 178.297 161.075C178.091 161.374 177.979 161.464 177.696 161.424C177.527 160.425 177.53 159.558 177.529 158.43Z" fill="#805AD5"/>
<path d="M177.44 161.44C177.64 161.291 177.753 161.289 178.036 161.285C178.205 161.561 178.204 161.838 178.204 162.324C177.924 162.531 177.644 162.531 177.154 162.528C177.08 162.214 177.217 161.901 177.44 161.44Z" fill="#805AD5"/>
<path d="M92.3229 170.643C92.4709 172.576 92.7986 174.54 92.0138 176.661C89.8027 176.828 91.0602 175.162 90.6663 174.025C90.8278 172.881 90.9931 171.991 91.2036 170.88C91.5354 170.655 91.822 170.651 92.3229 170.643Z" fill="#805AD5"/>
<path d="M91.7181 177.989C91.8829 179.662 92.0773 181.211 91.3919 182.913C91.0854 182.243 90.8766 181.347 90.653 180.214C90.638 179.517 90.6379 179.056 90.6383 178.365C90.8795 177.876 91.1734 177.779 91.7181 177.989Z" fill="#805AD5"/>
<path d="M91.9172 177.927C91.6331 178.134 91.3497 178.135 90.8529 178.135C90.0238 176.84 89.928 175.526 90.5726 173.978C91.0208 174.684 91.3763 175.599 91.8249 176.702C91.918 177.167 91.9179 177.443 91.9172 177.927Z" fill="#805AD5"/>
<path d="M174.519 122.761C175.367 123.003 175.937 123.717 176.256 124.879C175.41 124.636 174.838 123.924 174.519 122.761Z" fill="#805AD5"/>
<path d="M172.038 117.731C172.299 117.891 172.653 118.206 173.098 118.676C172.836 118.516 172.483 118.201 172.038 117.731Z" fill="#805AD5"/>
<path d="M169.595 115.158C169.915 114.941 170.301 115.039 170.628 115.589C170.376 115.554 170.06 115.404 169.595 115.158Z" fill="#805AD5"/>
<path d="M92.9963 162.055C93.0957 163.839 93.4243 165.803 92.6408 167.923C91.8536 166.134 91.3941 164.125 92.9963 162.055Z" fill="#805AD5"/>
<path d="M89.5196 196.659C89.317 196.878 89.2126 196.877 88.9514 196.877C89.1141 194.434 88.869 191.873 90.497 189.525C90.6835 191.786 90.3143 194.137 89.5196 196.659Z" fill="#805AD5"/>
<path d="M91.1349 185.124C91.1481 185.908 91.0054 186.813 90.7672 187.925C90.1688 187.106 89.9798 186.113 91.1349 185.124Z" fill="#805AD5"/>
<path d="M176.313 172.141C176.781 171.891 177.247 171.889 177.946 171.884C178.141 173.616 178.402 175.375 177.661 177.289C177.207 176.598 176.852 175.678 176.399 174.57C176.304 173.717 176.308 173.054 176.313 172.141Z" fill="#805AD5"/>
<path d="M163.235 109.042C164.642 109.776 166.429 110.34 166.98 112.418C166.457 112.419 165.952 112.261 165.263 112.03C164.414 111.096 163.529 110.38 163.235 109.042Z" fill="#805AD5"/>
<path d="M114.416 132.96C113.704 132.717 113.336 132.189 114.294 131.397C114.423 131.779 114.422 132.251 114.416 132.96Z" fill="#805AD5"/>
<path d="M221.86 124.023C215.824 89.5551 189.509 64.2567 154.925 59.7792C148.549 58.9537 142.032 59.2111 135.593 59.8518C132.887 60.121 130.175 60.4121 127.512 59.8132C125.546 59.3709 123.709 58.5082 123.329 56.1584C122.964 53.9089 124.124 52.3857 125.832 51.1596C127.571 49.9111 129.594 49.3994 131.648 49.0139C146.764 46.1771 161.5 47.8382 175.927 52.8609C188.434 57.2155 199.403 64.1953 208.665 73.5272C222.822 87.7905 231.288 105.074 233.723 125.05C235.172 136.942 234.571 148.908 234.004 160.862C233.461 172.287 232.625 183.676 231.296 195.032C230.992 197.623 230.497 200.169 229.147 202.474C228.141 204.189 226.885 205.56 224.719 205.335C222.597 205.114 221.513 203.601 220.81 201.741C220.21 200.154 220.006 198.501 220.103 196.831C220.52 189.677 220.877 182.516 221.45 175.373C222.814 158.355 223.197 141.336 221.86 124.023Z" fill="#805AD5"/>
<path d="M42.9495 88.0218C36.7299 100.74 33.4986 113.993 32.4928 127.841C32.2218 131.571 31.87 135.313 30.8671 138.94C30.0646 141.842 28.6935 144.343 25.7096 145.6C22.5077 146.949 19.136 146.043 17.1515 143.175C15.0502 140.138 14.499 136.622 14.4484 133.065C14.1865 114.636 18.4474 97.2014 26.0754 80.4906C32.5017 66.4124 41.2543 53.9349 52.1188 42.991C68.1331 26.8598 87.0741 15.2747 109.017 9.31611C146.162 -0.770525 181.656 3.58083 214.942 23.298C227.7 30.8548 238.446 40.8114 247.942 52.1363C249.899 54.4705 251.39 57.0943 252.095 60.0967C252.869 63.3924 252.299 66.4485 249.587 68.5737C246.891 70.6865 243.746 70.6075 240.721 69.1247C236.69 67.1484 233.832 63.7486 230.928 60.5101C218.321 46.4564 203.301 36.0014 185.58 29.3618C173.347 24.7782 160.662 22.3627 147.7 22.1624C131.273 21.9087 115.423 25.2359 100.325 31.8841C86.6172 37.92 74.559 46.3717 64.1746 57.0743C55.4246 66.0923 48.3308 76.358 42.9495 88.0218Z" fill="#805AD5"/>
<path d="M65.7684 173.259C64.8704 180.251 63.4387 186.855 61.6738 193.39C61.0125 195.838 59.9776 198.088 58.0131 199.799C55.6545 201.854 53.0507 201.372 51.5791 198.581C50.397 196.339 50.5312 193.943 50.9393 191.562C52.8546 180.39 54.6601 169.206 55.9551 157.937C56.8344 150.285 57.1328 142.599 57.4531 134.931C58.0632 120.331 61.3223 106.549 68.5398 93.7756C69.9362 91.3045 71.5361 88.9979 74.0558 87.5362C77.3192 85.6432 80.4849 87.3927 80.6057 91.1743C80.6911 93.85 79.7473 96.3218 78.5498 98.6267C71.3802 112.425 68.5557 127.09 68.6766 142.596C68.756 152.766 67.3672 162.911 65.7684 173.259Z" fill="#805AD5"/>
<path d="M183.824 102.594C183.948 104.02 184.755 105.117 185.59 106.185C192.835 115.457 195.526 126.262 195.647 137.714C195.907 162.473 194.593 187.158 191.314 211.719C190.857 215.145 190.134 218.475 188.347 221.503C186.945 223.877 184.947 225.103 182.161 224.904C179.364 224.705 177.921 222.838 177.078 220.473C175.82 216.945 176.093 213.248 176.54 209.656C178.351 195.107 179.35 180.503 180.156 165.87C180.762 154.853 181.375 143.838 179.96 132.874C177.55 114.191 163.012 101.683 144.431 101.97C130.219 102.188 116.003 114.026 112.567 128.473C111.286 133.86 110.704 139.313 110.669 144.849C110.544 164.634 109.008 184.302 105.444 203.781C104.847 207.046 103.891 210.248 103.056 213.468C102.548 215.43 101.444 217.044 100.008 218.47C95.9848 222.466 91.239 221.236 89.478 215.796C88.292 212.132 89.124 208.518 89.8102 205C92.9037 189.143 94.3191 173.133 95.1845 157.019C95.6798 147.797 95.725 138.553 96.8109 129.34C99.3518 107.781 117.803 89.3342 139.373 86.9375C150.047 85.7515 160.085 87.3118 169.588 92.3313C170.77 92.9557 172.097 93.3076 173.586 93.8203C173.817 93.8548 173.824 93.8486 173.821 93.8515C177.078 96.6354 180.667 99.0372 183.67 102.44C183.821 102.595 183.827 102.591 183.824 102.594Z" fill="#805AD5"/>
<path d="M178.384 149.274C178.295 147.287 177.919 145.119 178.72 142.786C179.544 144.774 180.02 146.986 178.384 149.274Z" fill="#805AD5"/>
<path d="M114.633 95.024C114.429 94.8175 114.431 94.5412 114.433 94.0576C115.778 93.413 116.951 92.703 118.049 91.5072C118.652 91.3507 119.12 91.3494 119.822 91.3476C118.597 92.9542 116.789 94.0578 114.633 95.024Z" fill="#805AD5"/>
<path d="M179.328 226.688C177.472 226.582 176.187 225.547 175.733 223.327C177.052 224.054 178.21 225.207 179.328 226.688Z" fill="#805AD5"/>
<path d="M140.292 85.0905C140.759 84.0554 141.688 83.8231 143.007 84.3959C142.303 84.6829 141.414 84.8849 140.292 85.0905Z" fill="#805AD5"/>
<path d="M108.035 201.955C108.026 202.373 107.881 202.882 107.645 203.567C107.257 203.094 107.264 202.505 108.035 201.955Z" fill="#805AD5"/>
<path d="M110.62 180.79C110.872 181.134 111.056 181.628 111.273 182.318C111.201 182.604 111.096 182.695 110.833 182.65C110.633 181.989 110.592 181.464 110.62 180.79Z" fill="#805AD5"/>
<path d="M181.774 227.39C181.299 227.774 180.709 227.766 180.157 226.998C180.577 227.008 181.087 227.152 181.774 227.39Z" fill="#805AD5"/>
<path d="M88.1995 202.995C88.0122 202.81 87.8505 202.499 87.6289 202.023C87.9671 202.078 88.2893 202.348 88.1995 202.995Z" fill="#805AD5"/>
<path d="M174.997 220.449C174.659 220.397 174.335 220.13 174.417 219.482C174.606 219.665 174.771 219.975 174.997 220.449Z" fill="#805AD5"/>
<path d="M110.674 182.723C110.778 182.515 110.883 182.515 111.146 182.514C111.434 182.978 111.343 183.365 110.797 183.697C110.68 183.486 110.678 183.209 110.674 182.723Z" fill="#805AD5"/>
<path d="M110.518 186.35C110.362 186.613 110.054 186.969 109.594 187.419C109.75 187.156 110.058 186.8 110.518 186.35Z" fill="#805AD5"/>
<path d="M183.749 102.395C180.209 100.2 176.894 97.4557 173.899 94.0476C177.756 95.8673 181.265 98.3847 183.749 102.395Z" fill="#805AD5"/>
<path d="M144.692 238.297C143.227 243.556 141.911 248.591 140.375 253.558C139.735 255.627 138.772 257.633 137.699 259.523C135.138 264.033 131.179 265.958 127.126 264.873C123.515 263.906 121.881 260.843 121.933 255.31C121.967 251.715 123.021 248.334 123.991 244.936C129.461 225.758 132.574 206.16 134.497 186.349C135.702 173.929 136.419 161.487 136.366 148.999C136.353 145.792 136.816 142.573 137.193 139.375C137.477 136.96 138.438 134.76 139.934 132.824C143.013 128.837 148.209 128.7 151.515 132.506C153.527 134.824 154.074 137.646 154.44 140.582C155.79 151.399 154.387 162.16 153.856 172.938C152.896 192.4 150.367 211.66 146.348 230.726C145.833 233.169 145.284 235.606 144.692 238.297Z" fill="#805AD5"/>
<path d="M269.878 110.864C271.567 112.56 272.399 114.461 272.782 116.539C273.937 122.801 274.367 129.114 273.789 135.466C273.687 136.578 273.366 137.737 272.866 138.735C271.287 141.882 267.995 142.073 265.853 139.229C265.016 138.116 264.563 136.846 264.385 135.49C263.56 129.204 262.623 122.924 262.628 116.565C262.629 115.338 262.788 114.047 263.191 112.896C264.389 109.481 266.447 108.839 269.878 110.864Z" fill="#805AD5"/>
<path d="M109.433 193.911C109.482 193.909 109.494 194.066 109.451 194.302C109.432 194.275 109.432 194.171 109.433 193.911Z" fill="#805AD5"/>
<path d="M185.619 13.9982C203.822 19.7707 219.564 29.2213 233.488 41.874C237.748 45.7449 241.563 49.9498 245.041 54.4919C245.794 55.4755 246.401 56.5897 246.952 57.7047C248.179 60.1898 248.834 62.8605 246.279 64.7878C243.647 66.7737 241.245 65.0951 239.31 63.3042C235.874 60.1232 232.607 56.7573 229.317 53.4213C209.517 33.3411 185.413 22.0103 157.506 19.127C130.568 16.3439 105.538 22.5705 82.8159 37.3099C53.1271 56.5688 35.596 83.8787 29.7893 118.702C28.987 123.513 28.6646 128.406 28.1699 133.267C27.9992 134.944 27.6245 136.543 26.9238 138.074C26.1385 139.79 25.0154 141.116 22.9673 141.11C20.8835 141.103 19.7777 139.67 19.1144 137.956C17.4012 133.53 17.9593 128.871 18.2964 124.36C19.9127 102.733 26.7912 82.7876 39.0078 64.9044C61.5586 31.8937 92.8478 12.8478 132.666 8.52391C150.504 6.58691 168.225 8.09816 185.619 13.9982Z" fill="#805AD5"/>
<path d="M106.94 173.815C105.77 186.329 104.247 198.499 101.325 210.452C100.876 212.288 100.129 214.027 98.9457 215.501C96.8087 218.164 93.6327 217.746 92.2104 214.668C91.3983 212.91 91.3152 211.09 91.6286 209.178C93.159 199.841 95.0727 190.557 95.8841 181.116C96.5422 173.46 96.8916 165.776 97.5795 158.122C98.4631 148.292 97.7983 138.381 99.4307 128.585C103.325 105.216 123.087 88.5688 146.794 88.8585C170.336 89.1462 190.222 107.255 192.556 130.642C193.674 141.842 193.142 153.047 192.713 164.278C192.168 178.52 191.275 192.711 189.438 206.84C189.063 209.725 188.535 212.592 188.02 215.458C187.781 216.793 187.354 218.097 186.531 219.201C185.505 220.577 184.287 221.779 182.381 221.452C180.622 221.15 179.802 219.741 179.328 218.214C178.445 215.371 178.611 212.407 178.974 209.541C180.932 194.063 181.814 178.511 182.69 162.946C183.24 153.167 183.41 143.439 182.57 133.675C180.566 110.35 158.77 94.8362 136.193 100.753C121.019 104.73 109.621 119.95 108.728 136.489C108.061 148.832 108.487 161.228 106.94 173.815Z" fill="#805AD5"/>
<path d="M149.499 187.616C147.464 209.604 143.827 231.003 137.428 251.88C136.664 254.373 135.734 256.826 133.935 258.793C132.539 260.321 130.823 261.381 128.672 260.767C126.498 260.146 125.703 258.288 125.316 256.262C124.872 253.93 125.544 251.694 126.187 249.513C132.922 226.654 136.497 203.264 138.283 179.545C138.986 170.21 139.537 160.886 139.487 151.52C139.468 148.102 139.832 144.667 140.227 141.264C140.728 136.946 143.166 134.04 145.945 134.12C148.704 134.199 151.072 137.335 151.248 141.596C151.762 154.065 151.333 166.516 150.252 178.946C150.009 181.741 149.764 184.536 149.499 187.616Z" fill="#805AD5"/>
</g>
<defs>
<filter id="filter0_d_77_16" x="0" y="0" width="292" height="296" filterUnits="userSpaceOnUse" color-interpolation-filters="sRGB">
<feFlood flood-opacity="0" result="BackgroundImageFix"/>
<feColorMatrix in="SourceAlpha" type="matrix" values="0 0 0 0 0 0 0 0 0 0 0 0 0 0 0 0 0 0 127 0" result="hardAlpha"/>
<feOffset dy="14"/>
<feGaussianBlur stdDeviation="5"/>
<feComposite in2="hardAlpha" operator="out"/>
<feColorMatrix type="matrix" values="0 0 0 0 0.501961 0 0 0 0 0.352941 0 0 0 0 0.835294 0 0 0 0.25 0"/>
<feBlend mode="normal" in2="BackgroundImageFix" result="effect1_dropShadow_77_16"/>
<feBlend mode="normal" in="SourceGraphic" in2="effect1_dropShadow_77_16" result="shape"/>
</filter>
</defs>
</svg>
